<svg width="205" height="52" viewBox="0 0 205 52" fill="none" xmlns="http://www.w3.org/2000/svg">
<path d="M1.86987 15.809V36.1909C1.86987 37.4402 2.59663 38.6896 3.64186 39.3102L21.3209 49.5012C22.4641 50.1218 23.8196 50.1218 24.9628 49.5012L42.6419 39.3102C43.7851 38.6896 44.4138 37.4402 44.4138 36.1909V15.809C44.4138 14.5596 43.6871 13.3102 42.6419 12.6896L24.9547 2.49866C23.8115 1.87805 22.4559 1.87805 21.3127 2.49866L3.63369 12.6896C2.49048 13.3102 1.86987 14.5596 1.86987 15.809Z" fill="#213147"/>
<path d="M27.0371 29.9522L24.5384 36.8197C24.4322 37.0238 24.4322 37.2362 24.5384 37.4403L28.9071 49.2971L33.8964 46.3819L27.8619 29.9522C27.7639 29.5358 27.2412 29.5358 27.0371 29.9522Z" fill="#12AAFF"/>
<path d="M32.0265 18.3079C31.9204 17.8915 31.4059 17.8915 31.1936 18.3079L28.6949 25.1754C28.5887 25.3796 28.5887 25.5919 28.6949 25.796L35.7665 45.247L40.7558 42.3318L32.0265 18.3079Z" fill="#12AAFF"/>
<path d="M23.0848 3.2255C23.191 3.2255 23.2889 3.2255 23.3951 3.33166L42.5276 14.3555C42.7318 14.4617 42.8379 14.6658 42.8379 14.9761V37.0239C42.8379 37.228 42.7318 37.5465 42.5276 37.6445L23.3951 48.6683C23.2889 48.7745 23.191 48.7745 23.0848 48.7745C22.9786 48.7745 22.8807 48.7745 22.7745 48.6683L3.64196 37.6445C3.43781 37.5383 3.33166 37.3342 3.33166 37.0239V14.9761C3.33166 14.772 3.43781 14.4535 3.64196 14.3555L22.7745 3.33166C22.8725 3.2255 22.9786 3.2255 23.0848 3.2255ZM23.0848 0C22.358 0 21.7293 0.204146 21.1087 0.522613L1.97613 11.5465C0.726759 12.2732 0 13.5226 0 14.9761V37.0239C0 38.3794 0.726759 39.7268 1.97613 40.4535L21.1087 51.4774C21.7293 51.7877 22.358 52 23.0848 52C23.8116 52 24.4403 51.7959 25.0609 51.4774L44.1935 40.4535C45.4428 39.7268 46.1696 38.4774 46.1696 37.0239V14.9761C46.1696 13.6206 45.4428 12.2732 44.1935 11.5465L25.1589 0.522613C24.5383 0.212312 23.9095 0 23.1828 0H23.0848Z" fill="#9DCCED"/>
<path d="M10.5015 45.2388L12.2653 40.4536L15.8011 43.3688L12.4776 46.4882L10.5015 45.2388Z" fill="#213147"/>
<path d="M21.5251 13.4165H16.6338C16.3235 13.4165 15.907 13.6207 15.8009 13.9391L5.40576 42.4297L10.3951 45.3449L21.8354 14.0371C21.9416 13.7268 21.7293 13.4165 21.419 13.4165H21.5251Z" fill="white"/>
<path d="M29.944 13.4166H25.0526C24.7423 13.4166 24.3259 13.6207 24.2197 13.9392L12.3711 46.382L17.3604 49.2972L30.2543 13.9392C30.3604 13.6289 30.1481 13.3186 29.8378 13.3186L29.944 13.4166Z" fill="white"/>
<path d="M66.7639 19.345C67.2865 19.345 67.7029 19.4511 68.0132 19.6553C68.3235 19.8594 68.6338 20.2759 68.9523 20.7985L75.2972 32.2388C75.4033 32.345 75.4033 32.443 75.2972 32.5491C75.2972 32.6553 75.191 32.6553 74.9869 32.6553H72.5943C72.3901 32.6553 72.284 32.5491 72.1778 32.4511L70.8141 29.9524H61.8725L60.517 32.4511C60.4109 32.6553 60.3129 32.6553 60.1005 32.6553H57.6018C57.3977 32.6553 57.2915 32.6553 57.2915 32.5491C57.2915 32.443 57.2915 32.345 57.2915 32.2388L63.5302 20.7985C63.8405 20.1779 64.1508 19.8594 64.4693 19.6553C64.7877 19.4511 65.0899 19.345 65.5063 19.345H66.6495H66.7639ZM63.0157 27.7721H69.5647L66.5516 22.154C66.4454 22.0479 66.4454 22.0479 66.3474 22.0479H66.2413C66.1351 22.0479 66.0371 22.0479 66.0371 22.154L63.0157 27.7721Z" fill="white"/>
<path d="M89.1216 19.345C90.5752 19.345 91.6204 19.6553 92.241 20.382C92.8616 21.0026 93.1801 22.0479 93.1801 23.2972V24.3343C93.1801 25.4775 92.9759 26.3104 92.5595 26.931C92.143 27.5516 91.4162 27.9681 90.3792 28.1804L93.6047 32.2388C93.7108 32.345 93.7108 32.443 93.7108 32.5491C93.7108 32.6553 93.6047 32.7533 93.4005 32.7533H90.9018C90.6976 32.7533 90.5915 32.7533 90.5915 32.6471C90.4853 32.6471 90.4853 32.5409 90.3873 32.443L87.3742 28.4907H81.2416V32.3368C81.2416 32.6471 81.1355 32.7533 80.8252 32.7533H78.7429C78.4326 32.7533 78.3264 32.6471 78.3264 32.3368V19.9656C78.3264 19.5491 78.5306 19.345 78.947 19.345H89.2441H89.1216ZM81.2171 26.2043H88.4929C89.1135 26.2043 89.6361 26.0981 89.8484 25.7878C90.1587 25.4775 90.2649 25.0611 90.2649 24.5384V23.7055C90.2649 23.0849 90.1587 22.6685 89.8484 22.4562C89.5381 22.1459 89.1216 22.0397 88.4929 22.0397H81.4213C81.2171 22.0397 81.2171 22.1458 81.2171 22.2438V26.2043Z" fill="white"/>
<path d="M109.194 19.345C110.549 19.345 111.48 19.6553 112.003 20.1779C112.525 20.7005 112.836 21.5334 112.836 22.5705V23.5095C112.836 24.5466 112.419 25.3795 111.586 25.9021C112.419 26.4247 112.942 27.2577 112.942 28.4009V29.5441C112.942 30.0667 112.836 30.4832 112.738 30.8996C112.64 31.3161 112.427 31.6264 112.215 31.9367C111.905 32.247 111.594 32.4593 111.178 32.5573C110.762 32.6634 110.239 32.7614 109.618 32.7614H98.2842C97.8677 32.7614 97.6636 32.5573 97.6636 32.1408V19.9737C97.6636 19.5573 97.8677 19.3531 98.2842 19.3531H109.308H109.194V19.345ZM100.562 24.8569H108.361C108.981 24.8569 109.398 24.7508 109.61 24.5466C109.822 24.3425 109.92 24.1301 109.92 23.7137V23.0931C109.92 22.6766 109.814 22.3663 109.61 22.2602C109.406 22.056 108.99 21.9499 108.573 21.9499H100.775C100.571 21.9499 100.571 22.056 100.571 22.154V24.8569H100.562ZM100.562 26.9392V29.7482C100.562 29.9524 100.669 29.9524 100.767 29.9524H108.565C109.088 29.9524 109.398 29.8462 109.602 29.6421C109.806 29.4379 109.912 29.1195 109.912 28.8092V28.0824C109.912 27.666 109.806 27.3556 109.602 27.1433C109.398 26.931 108.981 26.833 108.246 26.833H100.456L100.562 26.9392Z" fill="white"/>
<path d="M120.005 19.345C120.315 19.345 120.422 19.4511 120.422 19.7614V32.2388C120.422 32.5491 120.315 32.6553 120.005 32.6553H117.923C117.613 32.6553 117.506 32.5491 117.506 32.2388V19.7614C117.506 19.4511 117.613 19.345 117.923 19.345H120.005Z" fill="white"/>
<path d="M140.077 19.345C140.387 19.345 140.493 19.4511 140.493 19.7614V21.6314C140.493 21.9417 140.387 22.0479 140.077 22.0479H134.042V32.2388C134.042 32.5491 133.936 32.6553 133.626 32.6553H131.543C131.233 32.6553 131.127 32.5491 131.127 32.2388V22.0479H125.092C124.782 22.0479 124.676 21.9417 124.676 21.6314V19.7614C124.676 19.4511 124.782 19.345 125.092 19.345H139.962H140.077Z" fill="white"/>
<path d="M155.159 19.345C156.612 19.345 157.657 19.6553 158.278 20.382C158.899 21.0026 159.217 22.0479 159.217 23.2972V24.3343C159.217 25.4775 159.013 26.3104 158.597 26.931C158.18 27.5516 157.453 27.9681 156.416 28.1804L159.642 32.2388C159.748 32.345 159.748 32.443 159.748 32.5491C159.748 32.6553 159.642 32.7533 159.438 32.7533H156.939C156.735 32.7533 156.629 32.7533 156.629 32.6471C156.522 32.6471 156.522 32.5409 156.424 32.443L153.411 28.4907H147.279V32.3368C147.279 32.6471 147.173 32.7533 146.862 32.7533H144.78C144.47 32.7533 144.364 32.6471 144.364 32.3368V19.9656C144.364 19.5491 144.568 19.345 144.984 19.345H155.281H155.159ZM147.254 26.2043H154.53C155.151 26.2043 155.673 26.0981 155.886 25.7878C156.196 25.4775 156.302 25.0611 156.302 24.5384V23.7055C156.302 23.0849 156.196 22.6685 155.886 22.4562C155.575 22.1459 155.159 22.0397 154.53 22.0397H147.458C147.254 22.0397 147.254 22.1458 147.254 22.2438V26.2043Z" fill="white"/>
<path d="M165.873 19.345C166.183 19.345 166.289 19.4511 166.289 19.7614V27.3556C166.289 27.8783 166.289 28.2947 166.395 28.605C166.501 28.9153 166.599 29.2256 166.812 29.4379C167.024 29.6502 167.228 29.7482 167.538 29.8544C167.849 29.9605 168.265 29.9605 168.788 29.9605H174.096C174.618 29.9605 175.035 29.9605 175.345 29.8544C175.655 29.7482 175.966 29.6502 176.072 29.4379C176.276 29.2338 176.382 28.9153 176.488 28.605C176.594 28.2947 176.594 27.8783 176.594 27.3556V19.7614C176.594 19.4511 176.7 19.345 177.011 19.345H179.093C179.403 19.345 179.51 19.4511 179.51 19.7614V27.6659C179.51 28.605 179.403 29.3318 179.199 29.9524C178.995 30.573 178.677 31.0956 178.26 31.5121C177.844 31.9285 177.321 32.2388 176.594 32.345C175.868 32.5491 175.141 32.6553 174.096 32.6553H168.584C167.645 32.6553 166.812 32.5491 166.085 32.345C165.464 32.1408 164.836 31.8224 164.419 31.5121C164.003 31.0956 163.692 30.573 163.48 29.9524C163.276 29.3318 163.17 28.4989 163.17 27.6659V19.7614C163.17 19.4511 163.276 19.345 163.586 19.345H165.668H165.873Z" fill="white"/>
<path d="M187.708 19.345C188.018 19.345 188.23 19.345 188.434 19.4511C188.639 19.4511 188.851 19.5573 188.957 19.6553C189.063 19.7614 189.267 19.8594 189.373 20.0717C189.48 20.2759 189.578 20.4882 189.79 20.7985L193.742 29.9524C193.848 30.0585 193.848 30.1565 194.052 30.1565H194.257C194.363 30.1565 194.461 30.0504 194.567 29.9524L198.519 20.7985C198.625 20.4882 198.723 20.2759 198.936 20.0717C199.042 19.8676 199.14 19.7614 199.352 19.6553C199.458 19.5491 199.662 19.4511 199.875 19.4511C200.087 19.4511 200.291 19.345 200.601 19.345H202.684C203.304 19.345 203.827 19.4511 204.039 19.7614C204.243 20.0717 204.35 20.5943 204.35 21.3211V32.2388C204.35 32.5491 204.243 32.6553 203.933 32.6553H201.957C201.647 32.6553 201.541 32.5491 201.541 32.2388V22.2602C201.541 22.154 201.434 22.056 201.434 22.056H201.23C201.124 22.056 201.026 22.1622 201.026 22.1622L197.18 30.6873C197.074 30.9976 196.87 31.3079 196.657 31.5202C196.445 31.7325 196.347 31.9367 196.135 32.1408C195.931 32.247 195.718 32.4511 195.514 32.4511C195.31 32.5573 194.992 32.5573 194.681 32.5573H193.742C193.432 32.5573 193.122 32.5573 192.909 32.4511C192.697 32.345 192.493 32.247 192.289 32.1408C192.085 32.0347 191.978 31.8305 191.766 31.5202C191.562 31.3161 191.456 30.9976 191.243 30.6873L187.397 22.1622C187.397 22.056 187.291 22.056 187.193 22.056H186.989C186.883 22.056 186.883 22.1622 186.883 22.2602V32.247C186.883 32.5573 186.777 32.6634 186.466 32.6634H184.482C184.172 32.6634 184.066 32.5573 184.066 32.247V21.3211C184.066 20.5943 184.172 20.0717 184.376 19.7614C184.58 19.4511 185.103 19.345 185.732 19.345H187.814H187.708Z" fill="white"/>
</svg>
