<svg width="192" height="52" viewBox="0 0 192 52" fill="none" xmlns="http://www.w3.org/2000/svg">
<path d="M53.4939 6.26499H62.3132C64.5541 6.26499 66.1927 6.8674 67.2529 7.90354C68.2891 8.79511 68.7469 9.99993 68.7469 11.1807C68.7469 11.6385 68.7469 12.2168 68.6023 12.6746C68.3132 13.4216 67.8553 14.1686 67.2529 14.771C66.9638 15.0602 66.6505 15.2288 66.3614 15.3734C67.3975 15.6626 68.3132 16.265 69.0602 17.012C69.6626 17.759 69.9517 18.6505 69.9517 19.9999C69.9517 20.7469 69.8071 21.6385 69.4939 22.2409C69.2047 22.8433 68.6023 23.4457 67.9999 23.8795C67.2529 24.3373 66.5059 24.6264 65.759 24.9156C64.8674 25.2048 63.8071 25.2048 62.771 25.2048H53.6385V6.2168H53.4939V6.26499ZM61.5662 14.024C62.3132 14.024 63.0602 13.8794 63.8072 13.5662C64.4096 13.277 64.6987 12.6746 64.6987 12.0722C64.6987 11.4698 64.4096 10.8674 63.9517 10.5782C63.3493 10.1204 62.6023 9.97584 61.8553 10.1204H57.6626V14.1445H61.5421V14.024H61.5662ZM62.6023 21.6626C63.3493 21.6626 64.0963 21.518 64.8433 21.2048C65.4457 20.9156 65.7349 20.3132 65.5903 19.5662C65.5903 18.9638 65.3011 18.3614 64.8433 18.0722C64.3855 17.7831 63.4939 17.4698 62.4578 17.4698H57.518V21.6626H62.6023Z" fill="#F3BA2F"/>
<path d="M75.1565 6.26514H79.3493V25.3977H75.1565V6.26514Z" fill="#F3BA2F"/>
<path d="M85.7832 6.26514H89.6627L98.6266 18.0724V6.26514H102.795V25.3977H99.229L89.8073 13.2772V25.3977H85.7832V6.26514Z" fill="#F3BA2F"/>
<path d="M115.518 6.12036H119.398L127.615 25.3975H123.277L121.494 21.0601H113.422L111.639 25.3975H107.301L115.518 6.12036ZM120 17.4698L117.47 11.2047L114.94 17.4698H120Z" fill="#F3BA2F"/>
<path d="M132.096 6.26514H135.976L144.94 18.0724V6.26514H149.133V25.3977H145.542L136.265 13.2772V25.3977H132.096V6.26514Z" fill="#F3BA2F"/>
<path d="M164.362 25.6867C163.012 25.6867 161.663 25.3975 160.482 24.9397C158.096 23.9035 156.289 22.0963 155.253 19.7108C154.795 18.5059 154.506 17.1806 154.506 15.8312C154.506 13.3011 155.542 10.7469 157.349 8.81921C158.241 7.92764 159.301 7.18065 160.482 6.72282C161.831 6.12041 163.181 5.97583 164.506 5.97583C165.253 5.97583 166.145 5.97583 166.892 6.12041C167.639 6.26499 168.241 6.40957 168.843 6.72282C169.446 7.01198 170.048 7.32523 170.482 7.61439C170.94 7.90355 171.518 8.36138 171.976 8.81921L169.446 11.9517C168.699 11.3493 167.952 10.7469 167.205 10.3132C166.458 9.87944 165.566 9.71077 164.675 9.71077C163.928 9.71077 163.181 9.85535 162.434 10.1686C161.687 10.4578 161.084 10.9156 160.651 11.518C160.217 12.1204 159.759 12.7228 159.446 13.4698C159.157 14.2168 158.988 14.9638 158.988 15.7108C158.988 16.4578 159.133 17.3493 159.446 18.0963C159.759 18.8433 160.048 19.4457 160.651 20.0481C161.687 21.2529 163.181 21.8313 164.675 21.8313C165.566 21.8313 166.627 21.6867 167.518 21.2288C168.265 20.771 169.157 20.1927 169.759 19.5903L172.434 22.265C171.976 22.7228 171.398 23.3011 170.94 23.759C170.337 24.2168 169.735 24.506 169.157 24.7951C168.554 25.0843 167.807 25.3975 167.06 25.5421C166 25.6867 165.109 25.6867 164.362 25.6867Z" fill="#F3BA2F"/>
<path d="M177.229 6.26514H191.566V10.0001H181.253V13.8796H190.362V17.6145H181.253V21.6627H191.711V25.3977H177.229V6.26514Z" fill="#F3BA2F"/>
<path d="M58.8674 44.2168C57.8313 44.2168 56.771 44.0722 55.8795 43.6144C54.9879 43.3252 54.0963 42.7228 53.1807 41.9758L54.6746 40.3373C55.277 40.9397 55.8795 41.2288 56.6264 41.6867C57.3734 41.9758 58.1204 42.1445 58.8674 42.1445C59.4698 42.1445 60.0722 41.9999 60.6505 41.6867C61.1084 41.3975 61.253 40.9397 61.253 40.4819C61.253 40.3373 61.253 40.024 61.1084 39.8795C60.9638 39.7349 60.8192 39.4216 60.6505 39.277C60.3614 39.1325 60.0481 38.9879 59.759 38.8192C59.3011 38.6746 58.7228 38.53 58.265 38.3614C57.6626 38.2168 56.9156 38.0722 56.3132 37.759C55.8554 37.6144 55.277 37.3011 54.9638 37.012C54.6746 36.7228 54.3614 36.4096 54.0722 35.9758C53.7831 35.3734 53.7831 34.771 53.7831 34.3373C53.7831 33.7349 53.9276 33.3011 54.0722 32.6987C54.2168 32.2409 54.6746 31.8072 54.9638 31.4939C55.4216 31.2047 55.8554 30.8915 56.4578 30.7469C57.0602 30.6023 57.6626 30.4578 58.2409 30.4578C59.1325 30.4578 60.024 30.6023 60.9397 30.9156C61.6867 31.2048 62.4337 31.6626 63.1807 32.1204L61.9758 33.9035C61.3734 33.4457 60.771 33.1566 60.1927 32.8674C59.5903 32.5782 58.9879 32.5782 58.4096 32.5782C57.8072 32.5782 57.2048 32.7228 56.771 33.0361C56.4819 33.3252 56.1686 33.7831 56.1686 34.2409C56.1686 34.5301 56.1686 34.6987 56.3132 34.9879C56.4578 35.1325 56.6023 35.4457 56.771 35.5903C57.0602 35.7349 57.3734 35.8795 57.8072 36.0481C58.265 36.1927 58.6987 36.3373 59.4457 36.506C60.0481 36.6505 60.6505 36.7951 61.3975 37.1084C61.8554 37.2529 62.2891 37.5662 62.7469 37.8554C63.0361 38.1445 63.3493 38.6023 63.4939 38.8915C63.6385 39.3493 63.7831 39.7831 63.7831 40.3855C63.7831 40.9879 63.6385 41.5903 63.4939 42.024C63.2048 42.4819 62.8915 42.9156 62.4578 43.3734C61.9999 43.6626 61.5662 43.9758 60.9638 44.1204C60.2168 44.0722 59.4698 44.2168 58.8674 44.2168Z" fill="#F3BA2F"/>
<path d="M66.3374 30.6265H68.8916L72.9157 36.8915L77.1085 30.6265H79.6386V44.0722H77.2531V34.3614L73.0603 40.6265H72.9157L68.747 34.3614V44.0722H66.3374V30.6265Z" fill="#F3BA2F"/>
<path d="M87.7108 30.4819H89.9518L95.7831 43.9277H93.253L91.9036 40.6506H85.6385L84.2891 43.9277H81.9036L87.7108 30.4819ZM91.1566 38.6988L88.771 33.3253L86.5301 38.6988H91.1566Z" fill="#F3BA2F"/>
<path d="M98.1687 30.6265H104.145C104.892 30.6265 105.639 30.771 106.386 30.9156C106.988 31.0602 107.59 31.518 108.024 31.9518C108.313 32.2409 108.627 32.6987 108.916 33.3012C109.06 33.759 109.205 34.3373 109.205 34.9397C109.205 35.3975 109.06 35.9759 108.916 36.4337C108.771 36.8915 108.458 37.1807 108.313 37.6385C108.024 37.9277 107.711 38.2409 107.277 38.5301C106.819 38.8192 106.386 38.9879 105.928 39.1325L109.518 44.2168H106.675L103.398 39.5903H100.41V44.2168H98.0242L98.1687 30.6265ZM104 37.2048C104.747 37.2048 105.494 37.0602 105.952 36.6024C106.41 36.1445 106.699 35.5662 106.699 34.9638C106.699 34.3614 106.41 33.759 105.952 33.3253C105.349 32.8674 104.602 32.7228 103.855 32.7228H100.41V37.2048H104Z" fill="#F3BA2F"/>
<path d="M115.349 32.7228H111.012V30.6265H121.928V32.7228H117.59V44.0722H115.205L115.349 32.7228Z" fill="#F3BA2F"/>
<path d="M136.434 44.2168C135.542 44.2168 134.651 44.0722 133.735 43.6144C132.096 42.8674 130.747 41.6626 130.145 40.024C129.855 39.1324 129.542 38.2409 129.687 37.3252C129.687 36.4336 129.831 35.5421 130.145 34.6264C130.747 32.9879 132.096 31.6385 133.735 30.8915C134.627 30.6023 135.518 30.2891 136.578 30.2891C137.181 30.2891 137.783 30.2891 138.217 30.4336C138.675 30.5782 139.109 30.7228 139.566 30.8915C140.024 31.0361 140.313 31.3493 140.771 31.4939C141.06 31.783 141.518 32.0963 141.807 32.3855L140.313 34.1686C139.855 33.7108 139.277 33.277 138.675 32.9638C138.072 32.6746 137.325 32.5059 136.578 32.5059C135.976 32.5059 135.374 32.6505 134.795 32.7951C134.193 33.0842 133.759 33.3975 133.301 33.8312C132.843 34.2891 132.554 34.7228 132.41 35.3252C132.265 35.9276 132.121 36.53 132.121 37.1083C132.121 37.7108 132.265 38.3132 132.41 38.8915C132.554 39.4698 132.868 39.9276 133.301 40.3855C133.759 40.8433 134.193 41.1324 134.795 41.4216C135.398 41.7108 136 41.8794 136.578 41.7108C137.325 41.7108 138.072 41.5662 138.675 41.2529C139.277 40.9638 139.88 40.5059 140.458 39.9035L141.952 41.3975C141.663 41.6867 141.205 42.1445 140.916 42.4336C140.458 42.7228 140.169 43.036 139.711 43.1806C139.253 43.3252 138.819 43.6385 138.217 43.6385C137.615 44.2168 137.012 44.2168 136.434 44.2168Z" fill="#F3BA2F"/>
<path d="M144.337 30.6265H146.578V36.1445H153.012V30.6265H155.398V44.0722H153.012V38.3855H146.578V44.0722H144.337V30.6265Z" fill="#F3BA2F"/>
<path d="M163.614 30.4819H165.855L171.687 43.9277H169.157L167.807 40.6506H161.542L160.193 43.9277H157.807L163.614 30.4819ZM166.916 38.6988L164.675 33.3253L162.434 38.6988H166.916Z" fill="#F3BA2F"/>
<path d="M174.072 30.6265H176.482V44.0722H174.072V30.6265Z" fill="#F3BA2F"/>
<path d="M180.048 30.6265H182.144L189.325 39.8795V30.6265H191.711V44.0722H189.759L182.458 34.506V44.0722H180.048V30.6265Z" fill="#F3BA2F"/>
<path d="M27.2048 43.1807V49.012L22.1205 52L17.1807 49.012V43.1807L22.1205 46.1687L27.2048 43.1807ZM0 23.012L4.93976 26V36L13.4458 41.0843V46.9157L0 38.9879V23.012ZM44.241 23.012V39.012L30.6506 46.9398V41.1084L39.1566 36.0241V26.0241L44.241 23.012ZM30.6265 15.0843L35.7108 18.0723V23.9036L27.2048 28.9879V39.1325L22.2651 42.1205L17.3494 39.1325V28.9638L8.53012 23.8795V18.0482L13.6145 15.0602L22.1205 20.1446L30.6265 15.0843ZM8.53012 28.0723L13.4699 31.0602V36.8916L8.53012 33.9036V28.0723ZM35.7108 28.0723V33.9036L30.7711 36.8916V31.0602L35.7108 28.0723ZM4.93976 10L10.0241 12.9879L4.93976 15.9759V21.8072L0 18.8193V12.9879L4.93976 10ZM39.3012 10L44.3855 12.9879V18.8193L39.3012 21.8072V15.9759L34.3614 12.9879L39.3012 10ZM22.1205 10L27.2048 12.9879L22.1205 15.9759L17.1807 12.9879L22.1205 10ZM22.1205 0L35.7108 7.92771L30.7711 10.9157L22.2651 5.83132L13.5904 10.9157L8.6506 7.92771L22.1205 0Z" fill="#F3BA2F"/>
</svg>
