<svg width="207" height="52" viewBox="0 0 207 52" fill="none" xmlns="http://www.w3.org/2000/svg">
<path d="M41.6302 15.9809L36.1164 21.4357L26.1092 11.1867L16.2405 21.129L10.5381 15.3057L25.7937 0L41.6302 15.9809Z" fill="#F0B90B"/>
<path d="M10.4968 36.1989L15.9398 30.6733L25.776 40.9843C29.7506 37.5847 32.8112 33.9197 36.2521 30.7824L41.6656 36.3846C36.5735 41.4855 31.2868 46.8253 26.1446 51.9999L10.4968 36.1989Z" fill="#F0B90B"/>
<path d="M78.2623 14.943L79.831 16.0398C80.5946 16.547 81.2079 17.2517 81.606 18.0832C82.004 18.9117 82.175 19.8346 82.0984 20.7545C82.0217 21.6745 81.7003 22.5531 81.1666 23.305C80.6359 24.0539 79.9135 24.6466 79.0761 25.0181C78.0736 25.5164 76.9827 25.8142 75.8681 25.8938C72.3063 26.0029 68.7298 25.9351 65.0117 25.9351V5.28661C69.1102 5.26008 73.241 4.74998 77.2628 5.87042C81.0575 6.92009 82.1367 11.1807 79.5214 14.1528C79.256 14.4506 78.8108 14.5921 78.2623 14.943ZM69.1131 22.1698C71.5161 22.0076 73.7894 22.5177 76.0598 21.8337C76.5463 21.7305 76.9797 21.4563 77.2805 21.0582C77.5812 20.6602 77.7316 20.1648 77.7021 19.6665C77.7169 19.3982 77.6756 19.1299 77.5871 18.8763C77.4957 18.6227 77.3571 18.3928 77.1773 18.1923C76.9974 17.9947 76.7792 17.8355 76.5375 17.7234C76.2957 17.6114 76.0333 17.5495 75.7679 17.5406C73.5683 17.3932 71.3451 17.4994 69.1102 17.4994V22.1698H69.1131ZM69.06 13.6162C71.0031 13.7253 72.9344 13.9051 74.8391 13.5218C75.3374 13.454 75.7915 13.2063 76.1188 12.8201C76.4461 12.4368 76.62 11.9444 76.6082 11.4372C76.6407 10.9684 76.4991 10.5055 76.2161 10.1369C75.933 9.76541 75.5232 9.51478 75.0662 9.42633C73.0936 8.95162 71.0385 8.93097 69.06 9.3703V13.6162Z" fill="#F0B90B"/>
<path d="M144.704 5.31323H148.419L157.754 17.579L158.282 17.4051V5.35746H162.416V25.7641H158.786L149.342 13.3833L148.782 13.5366C148.558 15.5062 148.708 17.5024 148.685 19.4897C148.658 21.474 148.685 23.5763 148.685 25.7789H144.713L144.704 5.31323Z" fill="#F0B90B"/>
<path d="M102.075 13.3833V25.7553H97.8936V5.34863H101.756C104.985 9.32913 107.865 13.6428 111.2 17.5879L111.622 17.3845V5.38696H115.635V25.7641H112.123L102.608 13.2448L102.075 13.3833Z" fill="#F0B90B"/>
<path d="M189.76 25.7494V5.34277H205.022V9.29083H194.351V13.6399H203.763V17.3668H194.351V22.0432H205.004V25.7347L189.76 25.7494Z" fill="#F0B90B"/>
<path d="M140.886 25.8644H136.481L134.502 21.3207H125.683L123.743 25.8231H119.465C122.416 18.8587 125.262 12.0742 128.128 5.26904H132.194L140.886 25.8644ZM127.331 17.2724C129.369 17.5408 131.02 17.697 132.854 17.1545L130.351 11.0835H129.85L127.331 17.2724Z" fill="#F0B90B"/>
<path d="M185.503 8.14089C185.379 8.4151 185.229 8.67457 185.058 8.9193C184.409 9.65938 183.734 10.3729 183.017 11.1513C181.098 9.87462 179.202 8.56253 176.805 9.02545C175.339 9.29081 174.027 10.0899 173.11 11.2693C172.137 12.5666 171.627 14.1588 171.662 15.7864C171.698 17.414 172.279 18.9796 173.308 20.2357C175.625 22.9277 178.618 22.8805 183.224 20.0558C183.645 20.448 184.129 20.8519 184.574 21.2854C185.016 21.7188 185.338 22.0933 185.697 22.4854C183.035 26.7106 175.442 27.6247 171.061 24.0157C166.367 20.1561 165.88 12.9617 169.873 8.3237C173.644 3.94516 182.593 4.1663 185.503 8.14089Z" fill="#F0B90B"/>
<path d="M64.9795 40.2441V38.4839H144.3C144.348 39.0146 144.392 39.5424 144.457 40.2441H64.9795Z" fill="#F0B90B"/>
<path d="M180.991 32.3451C183.521 32.3451 185.877 32.3245 188.251 32.3451C189.837 32.3451 191.123 32.9496 191.789 34.5123C192.455 36.0779 191.992 37.3812 190.828 38.5163C190.671 38.6933 190.53 38.8849 190.406 39.0854C190.598 39.283 190.804 39.4599 191.022 39.622C192.461 40.4417 193.131 41.7125 192.839 43.3195C192.547 44.9264 191.414 46.1294 189.722 46.2945C186.886 46.5953 184.028 46.7191 180.986 46.9226L180.991 32.3451ZM183.347 44.5962C185.258 44.5107 187.054 44.5107 188.829 44.319C189.283 44.2601 189.701 44.0389 190.005 43.691C190.309 43.3431 190.477 42.8978 190.477 42.4349C190.477 41.972 190.312 41.5238 190.005 41.1789C189.701 40.8309 189.283 40.6068 188.829 40.5508C186.995 40.3887 185.14 40.5036 183.327 40.5036L183.347 44.5962ZM183.347 38.2923C184.813 38.3571 186.281 38.3453 187.744 38.251C188.74 38.136 189.595 37.5198 189.645 36.3433C189.696 35.1668 188.976 34.4769 187.876 34.4061C186.393 34.3088 184.892 34.3796 183.344 34.3796V38.2923H183.347Z" fill="#F0B90B"/>
<path d="M91.2979 5.36646V25.8144H87.3557V5.36646H91.2979Z" fill="#F0B90B"/>
<path d="M177.957 46.6839H175.543L173.968 43.0956H167.054L165.367 46.7016H163.088C165.196 41.7835 167.275 37.0039 169.386 32.1065L171.595 31.9885C173.694 36.8418 175.779 41.6538 177.957 46.6839ZM173.042 40.8341L170.459 34.881C169.516 37.1514 168.773 38.9205 167.977 40.8341H173.042Z" fill="#F0B90B"/>
<path d="M195.548 44.5844L196.622 43.1308C197.887 43.6763 199.019 44.3692 200.269 44.667C201.516 44.9648 202.799 44.9766 203.899 43.6291L203.975 41.9278C203.601 41.5917 203.182 41.3057 202.737 41.0787C201.472 40.6541 200.207 40.3474 198.942 39.9169C196.796 39.1769 195.879 37.8648 195.994 35.848C196.05 34.9222 196.421 34.0435 197.046 33.3624C197.668 32.6813 198.506 32.2361 199.417 32.1034C201.684 31.7407 203.86 32.068 205.862 33.7369L204.798 35.3173C202.722 34.5389 200.717 32.9526 198.503 35.0372V37.1041C199.567 37.5286 200.643 37.9532 201.737 38.3483C202.324 38.5606 202.958 38.6255 203.542 38.8407C205.65 39.6221 206.644 41.1288 206.399 43.1898C206.266 44.1068 205.833 44.9501 205.169 45.5899C204.506 46.2297 203.651 46.6278 202.74 46.7221C200.16 47.0199 197.715 46.6425 195.548 44.5844Z" fill="#F0B90B"/>
<path d="M5.68768 20.7163L11.1041 26.1357L5.48129 31.5226L0 25.9588L5.68768 20.7163Z" fill="#F0B90B"/>
<path d="M26.3863 20.4717L31.5757 25.6964L25.8939 31.2485L20.8342 26.0945L26.3863 20.4717Z" fill="#F0B90B"/>
<path d="M46.4303 31.3753L41.2114 26.1151L46.7281 20.5896L51.8467 25.9176L46.4303 31.3753Z" fill="#F0B90B"/>
<path d="M150.61 32.469H152.869V44.5461H160.355V46.6248H150.607V32.469H150.61Z" fill="#F0B90B"/>
</svg>
