<svg width="166" height="52" viewBox="0 0 166 52" fill="none" xmlns="http://www.w3.org/2000/svg">
<path fill-rule="evenodd" clip-rule="evenodd" d="M12.095 44.6399C6.41309 40.3965 2.74504 33.6238 2.74504 25.988C2.74504 13.1379 13.1618 2.72107 26.012 2.72107C36.6206 2.72107 48.1881 9.06224 50.9931 18.7598C47.8525 7.93545 37.8552 0 26 0C11.6395 0 0 11.6395 0 26C0 40.3605 11.6395 52 26 52C40.3605 52 52 40.3605 52 26V24.6335H50.5735C50.5256 24.6335 50.4657 24.6335 50.3817 24.6335C50.2139 24.6335 49.9742 24.6215 49.6625 24.6095C49.0512 24.5855 48.2001 24.5496 47.2411 24.4657C45.2872 24.2978 43.0696 23.9622 41.5473 23.3628C39.1139 22.3919 37.7354 21.0973 36.1651 19.5869L36.0692 19.503C34.4989 17.9926 32.7248 16.2905 29.6561 14.852C26.6353 13.4255 23.2909 13.6533 20.8336 14.1687C19.5869 14.4205 18.5201 14.7681 17.7649 15.0438C17.3813 15.1757 17.0816 15.3075 16.8658 15.3914C15.6312 15.9069 14.4325 16.5302 13.2218 17.0936C13.2218 17.0936 15.5952 17.7409 16.7819 18.1125C16.8299 18.1245 16.8898 18.1485 16.9737 18.1724C17.1535 18.2324 17.4053 18.3163 17.7049 18.4481C18.3283 18.6999 19.1434 19.0834 19.9465 19.5989C21.2172 20.414 22.272 21.4449 22.7036 22.7036C20.0065 23.0632 17.4772 24.2379 15.5952 25.3527C14.4444 26.024 13.4975 26.6953 12.8262 27.1987C12.4905 27.4504 12.2268 27.6662 12.047 27.8101C11.8912 27.9419 9.45781 30.0756 9.45781 30.0756C9.45781 30.0756 12.5984 30.4112 14.1448 30.7229C15.1757 30.9267 16.5662 31.2623 18.0166 31.7658C19.467 32.2692 20.9414 32.9405 22.1641 33.7916C23.3868 34.6427 24.2858 35.6376 24.7294 36.7644C26.012 40.0489 24.7533 43.2614 22.2121 45.0595C19.7068 46.8336 15.9069 47.2531 12.095 44.6399ZM20.9654 48.7155C21.9843 48.3799 22.9433 47.9004 23.8064 47.2891C27.2586 44.8317 29.0687 40.3486 27.2826 35.7695C26.5754 33.9714 25.2328 32.5929 23.7344 31.55C22.2361 30.5071 20.5219 29.74 18.9276 29.1886C17.8847 28.829 16.8658 28.5413 15.9788 28.3255C16.2905 28.1217 16.6261 27.906 16.9857 27.7022C19.0954 26.4675 21.7446 25.3287 24.2858 25.3287C28.1217 25.3287 30.9746 26.5035 33.7077 27.7621C33.9594 27.882 34.1992 27.9899 34.4509 28.1097C36.8843 29.2485 39.4495 30.4592 42.4223 30.4592C45.3112 30.4592 47.5528 29.6441 49.0991 28.805C47.7206 40.3366 37.9032 49.2789 26 49.2789C24.2739 49.255 22.5837 49.0632 20.9654 48.7155ZM46.1383 27.1028C45.1194 27.4504 43.8728 27.7022 42.4223 27.7022C40.0848 27.7022 38.083 26.7672 35.5417 25.5805C35.314 25.4726 35.0862 25.3647 34.8585 25.2568C32.3172 24.0821 29.3684 22.8234 25.5325 22.5957C25.0171 20.0544 23.0871 18.3163 21.4449 17.2614C21.2651 17.1415 21.0733 17.0337 20.8935 16.9258C21.0613 16.8898 21.2291 16.8539 21.397 16.8179C23.6146 16.3624 26.2637 16.2425 28.4933 17.2974C31.1544 18.544 32.6528 19.9945 34.2112 21.4929L34.2591 21.5408C35.8654 23.0871 37.5675 24.6934 40.5284 25.8801C42.1826 26.5514 44.3163 26.911 46.1383 27.1028Z" fill="url(#paint0_linear_621_423)"/>
<path d="M10.4288 9.23001C10.4647 9.19404 10.4887 9.17007 10.5247 9.1461L10.4288 9.23001ZM9.40986 43.4052C9.3739 43.3812 9.33794 43.3453 9.31396 43.3093L9.40986 43.4052ZM23.7105 20.2102C23.6745 20.1862 23.6385 20.1502 23.6266 20.1143L23.7105 20.2102ZM23.1351 32.0894C23.0991 32.0654 23.0632 32.0414 23.0392 32.0175L23.1351 32.0894ZM23.195 32.1254L23.2909 32.1973C23.255 32.1733 23.219 32.1493 23.195 32.1254ZM159.872 38.4785L164.751 32.4011C164.787 32.3651 164.787 32.3052 164.763 32.2692C164.739 32.2213 164.691 32.1973 164.643 32.1973H162.677C162.641 32.1973 162.605 32.2093 162.581 32.2452L156.42 39.833C156.384 39.881 156.324 39.893 156.276 39.869C156.228 39.857 156.192 39.7971 156.192 39.7491V32.3052C156.192 32.2332 156.132 32.1733 156.06 32.1733H154.49C154.418 32.1733 154.358 32.2332 154.358 32.3052L154.334 47.4089C154.334 47.4449 154.346 47.4808 154.37 47.5048C154.394 47.5288 154.43 47.5408 154.466 47.5408H156.06C156.132 47.5408 156.192 47.4808 156.192 47.4089V43.1295C156.192 43.1055 156.204 43.0696 156.216 43.0456L158.266 40.4324C158.29 40.3964 158.337 40.3845 158.373 40.3845C158.421 40.3845 158.457 40.4084 158.481 40.4444L162.617 47.4808C162.641 47.5168 162.677 47.5408 162.725 47.5408H165.014C164.379 46.1143 160.327 39.4255 159.848 38.6343C159.836 38.5744 159.848 38.5265 159.872 38.4785ZM119.2 32.1373H117.581C117.533 32.1373 117.497 32.1733 117.485 32.2212L116.646 44.8077C116.646 44.8556 116.61 44.8916 116.562 44.8916C116.515 44.8916 116.467 44.8676 116.467 44.8197L114.597 36.2489C114.585 36.201 114.549 36.177 114.501 36.177H112.319C112.271 36.177 112.235 36.213 112.223 36.2489C112.079 36.9562 110.965 42.5182 110.473 44.8437C110.461 44.8916 110.425 44.9156 110.377 44.9156C110.329 44.9156 110.293 44.8796 110.293 44.8317C110.149 42.1466 109.466 33.1682 109.382 32.2212C109.382 32.1733 109.334 32.1373 109.286 32.1373C108.987 32.1373 108.004 32.1373 107.68 32.1373C107.656 32.1373 107.632 32.1493 107.608 32.1613C107.596 32.1853 107.584 32.2093 107.584 32.2332L108.747 47.5647C108.747 47.5647 108.771 47.5168 108.759 47.5647C108.771 47.5887 108.819 47.5647 108.819 47.5647H111.468C111.468 47.5647 113.098 39.1738 113.266 38.4905C113.278 38.4545 113.302 38.4306 113.326 38.4186C113.362 38.4066 113.398 38.4186 113.434 38.4426C113.734 38.7302 115.22 46.6177 115.376 47.4808C115.388 47.5288 115.424 47.5647 115.472 47.5647H118.037C118.085 47.5647 118.121 47.5288 118.133 47.4808L119.284 32.2332C119.284 32.2093 119.272 32.1853 119.26 32.1613C119.248 32.1493 119.224 32.1373 119.2 32.1373ZM72.45 5.87362C72.6777 5.87362 72.7257 5.93356 72.7257 6.14932C72.7257 6.23323 72.7257 6.31714 72.7257 6.41304V7.27611C72.7257 7.38399 72.7257 7.47989 72.7257 7.58778V8.60668C72.7257 8.72655 72.7257 8.84642 72.7257 8.96629V10.8603C72.7257 10.9921 72.7257 11.124 72.7257 11.2558V13.2697C72.7257 13.4015 72.7257 13.5334 72.7257 13.6772V16.0267C72.7257 16.1466 72.7257 16.2784 72.7257 16.3983V17.4651C72.7257 17.573 72.7257 17.6929 72.7257 17.8008V18.7358C72.7257 18.8317 72.7257 18.9276 72.7257 19.0235V19.5509C72.7257 19.6348 72.7257 19.7067 72.7257 19.7906V20.2102C72.7257 20.5938 72.7257 20.8695 72.7257 20.9893C72.7257 21.0733 72.7616 21.1692 72.6897 21.2411C72.1503 21.2291 71.6109 21.2291 71.0715 21.2411C70.9876 21.1572 71.0355 21.0373 71.0355 20.9414V9.02623C71.0355 8.94232 71.0355 8.87039 71.0355 8.78649C71.0235 8.70258 70.9756 8.69059 70.9036 8.71456L70.8917 8.75052C70.8797 8.7745 70.8797 8.79847 70.8557 8.82245C70.8317 8.85841 70.8437 8.89437 70.8077 8.93033C70.7238 9.00225 70.1125 10.4887 69.4772 12.1189L69.2254 12.7782C68.5422 14.5283 67.8829 16.2305 67.8349 16.3384C67.751 16.5062 67.775 16.5541 67.6432 16.4462C67.4514 16.2784 65.0659 10.129 64.5385 8.83443C64.5145 8.76251 64.4306 8.6786 64.3827 8.73854C64.3707 8.76251 64.3587 8.78648 64.3587 8.82245V10.9561C64.3587 13.3176 64.3107 20.1502 64.3107 21.1332V21.2531H64.1309C64.095 21.2531 64.047 21.2531 64.0111 21.2531H63.7114C63.6515 21.2531 63.6035 21.2531 63.5436 21.2531H63.0641C62.9202 21.2531 62.8124 21.2531 62.7524 21.2531C62.7284 21.2531 62.6925 21.2531 62.6685 21.2291C62.6565 21.2051 62.6565 21.1931 62.6565 21.1692C62.6685 20.7256 62.6685 19.443 62.6685 17.7768V13.7851C62.6685 13.6413 62.6685 13.4974 62.6685 13.3536V12.5025C62.6685 9.94923 62.6565 7.45592 62.6565 6.00548V5.98151C62.6565 5.95753 62.6685 5.94554 62.6805 5.93356C62.6925 5.92157 62.7165 5.92157 62.7404 5.92157C62.9682 5.92157 63.2079 5.93356 63.4477 5.93356L64.8502 5.92157C64.958 5.92157 65.0659 5.90958 65.0899 6.05343C65.2337 6.20926 67.1757 11.3158 67.6072 12.4186C67.739 12.7542 67.8469 12.5744 67.9308 12.3466C68.0627 11.987 70.2683 6.26919 70.4002 6.11336L70.4122 6.10138V6.08939C70.4242 6.04144 70.4242 6.00548 70.4601 5.96952C70.4961 5.94554 70.8077 5.93356 71.1913 5.93356H71.539C71.5989 5.93356 71.6588 5.93356 71.7188 5.93356H72.2222C72.2822 5.87362 72.3781 5.87362 72.45 5.87362ZM93.3675 21.2171C93.9069 21.1931 94.4343 21.2051 94.9737 21.2171C95.0576 21.1332 95.0097 21.0133 95.0097 20.9174C95.0097 16.8058 95.0097 8.42687 95.0097 8.34296C95.0097 8.25905 95.0576 8.23508 95.1415 8.27104V8.28303C95.1895 8.31899 99.373 18.8916 100.212 20.9893C100.224 21.0613 100.26 21.1332 100.32 21.1692C100.38 21.2171 100.452 21.2291 100.524 21.2171C100.907 21.2051 102.681 21.349 102.885 21.2171C103.029 21.1092 102.933 7.80354 102.933 6.11336C102.933 5.93356 102.885 5.87362 102.693 5.87362C102.31 5.88561 101.914 5.87362 101.519 5.87362C101.219 5.87362 101.219 5.87362 101.219 6.1733C101.219 10.2369 101.243 18.5799 101.195 18.6878C101.147 18.7358 96.3043 6.38907 95.9926 6.00548C95.9806 6.00548 95.9806 5.99349 95.9806 5.99349C95.9806 5.9815 95.9806 5.98151 95.9806 5.96952C95.9447 5.83766 95.8248 5.87362 95.7409 5.87362C95.0097 5.87362 94.2665 5.87362 93.5353 5.87362C93.3435 5.87362 93.3075 5.94554 93.3075 6.11336C93.3075 11.076 93.3195 16.0387 93.3075 21.0013C93.3075 21.0733 93.2596 21.1692 93.3675 21.2171ZM70.7958 32.1853C70.7958 32.1973 70.7478 44.9156 70.7478 44.9156L65.5214 32.1493H62.8723C62.8723 32.1493 62.8723 46.8335 62.8723 47.5168L64.5385 47.5048L64.5745 34.5827C64.5745 34.5827 68.0148 43.3213 69.8368 47.5048H72.462C72.462 47.5048 72.462 32.2213 72.462 32.1733C72.4739 32.0414 70.9276 32.1134 70.7958 32.1853ZM87.6256 45.9105C87.5657 45.9105 87.5058 45.9225 87.4458 45.9225H80.4094C80.3375 45.9345 80.2656 45.9225 80.2056 45.8985C80.1577 45.8146 80.1816 45.7307 80.1816 45.6348C80.1816 44.0525 80.1816 42.4582 80.1816 40.8759C80.1816 40.5763 80.1816 40.5763 80.4813 40.5763C82.7229 40.5763 84.9645 40.5763 87.2061 40.5763C87.4219 40.5763 87.4818 40.5163 87.4698 40.3125C87.4578 39.9529 87.4698 39.5933 87.4698 39.2337C87.4698 38.946 87.4698 38.946 87.1701 38.946H80.4933C80.1816 38.946 80.1816 38.946 80.1816 38.6343C80.1816 37.124 80.1816 35.6016 80.1816 34.0912C80.1816 33.8635 80.2536 33.8155 80.4693 33.8155C82.7948 33.8275 85.1083 33.8275 87.4338 33.8155C87.5297 33.8155 87.6256 33.8515 87.7095 33.7796V32.2212C87.6496 32.1493 87.5537 32.1853 87.4818 32.1853C84.509 32.1853 81.5482 32.1853 78.5754 32.1733C78.3476 32.1733 78.3237 32.2572 78.3237 32.449C78.3237 37.3997 78.3237 42.3384 78.3237 47.289C78.3237 47.5168 78.3956 47.5647 78.6113 47.5647C81.5602 47.5527 84.509 47.5527 87.4578 47.5527C87.5417 47.5527 87.6376 47.5887 87.7095 47.5168C87.7095 47.0013 87.7095 46.4739 87.7095 45.9585C87.6856 45.9225 87.6616 45.9105 87.6256 45.9105ZM119.367 6.18528C119.367 5.84965 119.403 5.87362 119.044 5.87362C115.675 5.87362 112.307 5.87362 108.939 5.87362C108.483 5.87362 108.016 5.88561 107.56 5.87362C107.38 5.87362 107.332 5.93356 107.332 6.10138C107.344 6.48496 107.344 6.88054 107.332 7.26412C107.32 7.49188 107.404 7.52784 107.608 7.51585C109.083 7.50387 110.569 7.51585 112.043 7.51585C112.427 7.51585 112.391 7.4679 112.391 7.85149C112.391 9.90128 112.391 11.9511 112.391 14.0009C112.391 16.3024 112.391 21.4449 112.391 21.4449H114.261C114.261 21.4449 114.261 12.1668 114.261 7.77957C114.261 7.69566 114.273 7.62374 114.273 7.53983C114.369 7.49188 114.465 7.51585 114.561 7.51585C116.071 7.51585 117.593 7.51585 119.104 7.51585C119.308 7.51585 119.367 7.4679 119.355 7.26412C119.355 6.90451 119.367 6.5449 119.367 6.18528ZM104.132 32.2332C104.048 32.1373 103.928 32.1853 103.832 32.1853C100.044 32.1853 96.2683 32.1853 92.4804 32.1853C92.4325 32.1853 92.3725 32.1853 92.3246 32.1853C92.1807 32.1733 92.1448 32.2332 92.1448 32.3651C92.1448 32.7487 92.1448 33.1443 92.1448 33.5278C92.1448 33.8155 92.1448 33.8155 92.4325 33.8155C93.9308 33.8155 95.4292 33.8155 96.9276 33.8155C97.1434 33.8155 97.2153 33.8635 97.2153 34.0912C97.2033 35.3139 97.2153 36.5366 97.2153 37.7593C97.2153 40.9119 97.2153 44.0645 97.2153 47.2171C97.2153 47.6127 97.1674 47.5647 97.5749 47.5647C97.9585 47.5647 98.3541 47.5647 98.7496 47.5647C99.1093 47.5647 99.0853 47.6127 99.0853 47.2531C99.0853 42.9137 99.0853 38.5744 99.0853 34.2351C99.0853 33.8395 99.0853 33.8395 99.4929 33.8395C100.955 33.8395 102.418 33.8395 103.88 33.8395C103.976 33.8395 104.072 33.8875 104.156 33.8035C104.108 33.2641 104.108 32.7487 104.132 32.2332ZM144.864 32.1853C146.159 32.2332 147.369 32.5449 148.208 33.6118C148.916 34.5108 148.892 35.5177 148.904 36.7644C148.916 37.6514 148.844 38.6463 148.328 39.3775C147.693 40.2766 146.614 40.768 145.535 40.8999C145.463 40.9119 145.427 40.9239 145.439 40.9838L145.463 41.0318L149.263 47.5288L147.058 47.5647L143.485 41.0078L141.1 41.0438V41.4873C141.1 41.5472 141.1 41.6071 141.1 41.6671V42.0986C141.1 42.1825 141.1 42.2664 141.1 42.3503V42.8898C141.1 43.3692 141.1 43.8967 141.1 44.4121V45.0354C141.1 45.5389 141.1 46.0304 141.1 46.4259V47.0493V47.1332V47.5168C141.088 47.5408 141.076 47.5647 141.04 47.5647C140.453 47.5767 139.865 47.5767 139.29 47.5647C139.278 47.5647 139.266 47.5527 139.254 47.5408C139.23 47.5168 139.218 46.1143 139.218 44.1244V43.5131V43.3573V39.6892V39.5094V38.5864C139.218 38.4665 139.218 38.3347 139.218 38.2148V37.4716C139.218 37.3517 139.218 37.2319 139.218 37.1V36.3808V36.201V35.3259V35.1581V33.9953V33.8395V32.5089L139.206 32.3771C139.206 32.3291 139.218 32.2932 139.242 32.2572C139.326 32.1973 139.434 32.2212 139.518 32.2212C141.304 32.1853 143.09 32.1134 144.864 32.1853ZM144.732 33.8155H141.232C141.112 33.8155 141.088 33.8395 141.088 33.9594V39.2816C141.088 39.4375 141.124 39.4375 141.316 39.4375C142.431 39.4375 143.545 39.4375 144.672 39.4375C144.96 39.4375 145.26 39.4135 145.547 39.3536C146.47 39.1378 147.034 38.5145 147.142 37.6874C147.225 37.0161 147.225 36.3328 147.154 35.6615C147.082 34.8944 146.674 34.331 145.943 34.0313C145.547 33.8755 145.14 33.8035 144.732 33.8155ZM88.7404 21.0972C88.6086 20.9654 84.3412 6.22125 84.1973 6.06541L84.1853 6.05343V6.02945C84.1733 5.99349 84.1734 5.94554 84.1374 5.90958C83.3462 5.84965 82.5671 5.89759 81.7759 5.88561C81.5602 5.88561 77.5445 19.491 77.029 21.2051C77.3287 21.2171 77.6284 21.2171 77.9281 21.2171C78.1798 21.2171 78.6953 21.3729 78.911 21.2291C79.1268 21.0852 80.0018 17.2254 80.1936 17.0096C80.2296 16.9017 80.3015 16.8778 80.4214 16.8778C82.0636 16.8778 83.7178 16.8778 85.3601 16.8778C85.468 16.8778 85.5519 16.9017 85.5878 17.0096C85.8276 17.6929 86.7626 21.0013 86.7626 21.0013C86.7746 21.0493 86.7865 21.0972 86.7985 21.1332C86.8105 21.1332 86.8105 21.1452 86.8105 21.1452C86.8105 21.1572 86.8105 21.1572 86.8105 21.1692C86.8225 21.2051 86.8465 21.2291 86.8704 21.2291C87.4938 21.2051 88.1171 21.2051 88.7524 21.2291C88.8124 21.2051 88.8004 21.1691 88.7764 21.1332C88.7644 21.1092 88.7524 21.0972 88.7404 21.0972ZM80.6731 15.1996C80.8289 14.6602 80.9728 14.1327 81.1286 13.6173L82.7109 8.11521C82.7349 8.04328 82.7469 7.98335 82.7709 7.91143C82.7828 7.86348 82.8428 7.82752 82.8907 7.82752C82.9507 7.81553 82.9986 7.85149 83.0106 7.91143C83.0226 7.94739 83.0226 7.98335 83.0346 8.01931C83.7178 10.3688 84.4011 12.7302 85.0724 15.0917C85.0844 15.1277 85.0844 15.1636 85.0964 15.2116L80.6731 15.1996ZM129.652 5.87362C129.353 5.87362 127.722 5.87362 127.447 5.87362C127.411 5.87362 127.375 5.89759 127.363 5.93356L122.784 21.4449H124.714L125.924 16.8778C125.936 16.8418 125.972 16.8178 126.008 16.8178H131.127C131.163 16.8178 131.199 16.8418 131.211 16.8778C131.343 17.3333 132.577 21.4449 132.577 21.4449C132.577 21.4449 134.507 21.4688 134.519 21.4449C134.531 21.325 129.988 6.78464 129.712 5.92157C129.7 5.8976 129.676 5.87362 129.652 5.87362ZM130.719 15.2116C130.324 15.2116 126.835 15.1636 126.416 15.1636C126.404 15.1636 126.392 15.1636 126.392 15.1516C126.392 15.1396 126.38 15.1396 126.392 15.1277C126.524 14.6721 127.782 10.2729 128.418 8.09123C128.442 7.99533 128.49 7.83951 128.586 7.83951C128.669 7.83951 128.717 7.99534 128.741 8.07925C129.377 10.2729 130.623 14.7321 130.755 15.1756C130.755 15.1876 130.755 15.1876 130.755 15.1996C130.743 15.1996 130.731 15.2116 130.719 15.2116ZM133.86 37.0041C133.836 35.6136 133.284 34.295 132.302 33.3121C131.319 32.3291 129.976 31.7657 128.586 31.7777C125.685 31.7777 123.371 34.0792 123.311 37.0041C123.299 37.2798 123.287 37.6754 123.275 38.0949C123.251 38.6943 123.227 39.3176 123.227 39.7252C123.227 40.1567 123.251 40.816 123.263 41.4513C123.275 41.8349 123.287 42.1945 123.287 42.4582C123.311 43.8487 123.863 45.1673 124.846 46.1502C125.828 47.1332 127.171 47.6966 128.562 47.6846C131.45 47.6846 133.776 45.3831 133.836 42.4582C133.848 42.1825 133.86 41.787 133.872 41.3674C133.896 40.768 133.92 40.1447 133.92 39.7372C133.92 39.3056 133.896 38.6463 133.884 38.011C133.884 37.6274 133.872 37.2678 133.86 37.0041ZM132.17 39.7252C132.17 40.1088 132.146 40.7081 132.122 41.2955C132.11 41.727 132.086 42.1346 132.086 42.4223C132.038 44.4001 130.491 45.9465 128.562 45.9465C126.632 45.9465 125.073 44.4001 125.037 42.4342C125.037 42.1585 125.025 41.7989 125.013 41.4034C124.989 40.816 124.977 40.1447 124.977 39.7372C124.977 39.3536 125.001 38.7542 125.025 38.1668C125.037 37.7353 125.061 37.3397 125.061 37.0401C125.109 35.0622 126.656 33.5159 128.586 33.5159C130.515 33.5159 132.074 35.0622 132.11 37.0281C132.11 37.3038 132.122 37.6634 132.134 38.059C132.158 38.6583 132.182 39.3296 132.17 39.7252Z" fill="white"/>
<defs>
<linearGradient id="paint0_linear_621_423" x1="-0.461815" y1="26.4796" x2="52.468" y2="25.5124" gradientUnits="userSpaceOnUse">
<stop stop-color="#29CCB9"/>
<stop offset="0.4948" stop-color="#0091FF"/>
<stop offset="1" stop-color="#FF66B7"/>
</linearGradient>
</defs>
</svg>
