<svg width="192" height="26" viewBox="0 0 192 26" fill="none" xmlns="http://www.w3.org/2000/svg">
<path d="M9.7375 26C8.22083 26 6.8125 25.7954 5.5125 25.3861C4.2125 24.9769 3.11713 24.363 2.22639 23.5444C1.33565 22.7259 0.697685 21.7028 0.3125 20.475C-0.0486111 19.2472 -0.0967592 17.8148 0.168056 16.1778C0.360648 15.1426 0.565278 14.1074 0.781944 13.0722C1.02269 12.037 1.26343 10.9898 1.50417 9.93056C2.29861 6.68056 3.73102 4.21296 5.80139 2.52778C7.87176 0.842594 10.6644 0 14.1792 0C15.6958 0 17.0921 0.216668 18.3681 0.650002C19.6681 1.05926 20.7634 1.68519 21.6542 2.52778C22.569 3.37037 23.2069 4.40556 23.5681 5.63333C23.9532 6.86111 24.0014 8.29352 23.7125 9.93056C23.544 10.9898 23.3393 12.037 23.0986 13.0722C22.8819 14.1074 22.6532 15.1426 22.4125 16.1778C21.594 19.4759 20.1495 21.9435 18.0792 23.5806C16.0088 25.1935 13.2282 26 9.7375 26ZM10.2069 20.8C11.5069 20.8 12.6505 20.4148 13.6375 19.6444C14.6245 18.8741 15.3227 17.6463 15.7319 15.9611C15.9968 14.9019 16.2255 13.9028 16.4181 12.9639C16.6347 12.025 16.8273 11.05 16.9958 10.0389C17.3088 8.35371 17.1644 7.12593 16.5625 6.35556C15.9606 5.58519 15.0097 5.2 13.7097 5.2C12.4097 5.2 11.2662 5.58519 10.2792 6.35556C9.3162 7.12593 8.63009 8.35371 8.22083 10.0389C7.95602 11.05 7.71528 12.025 7.49861 12.9639C7.30602 13.9028 7.11343 14.9019 6.92083 15.9611C6.63194 17.6463 6.77639 18.8741 7.35417 19.6444C7.93194 20.4148 8.88287 20.8 10.2069 20.8ZM27.5372 25.6389C27.2965 25.6389 27.1039 25.5546 26.9594 25.3861C26.815 25.2176 26.7668 25.0009 26.815 24.7361L31.7983 1.26389C31.8465 0.999076 31.9789 0.782409 32.1955 0.61389C32.4122 0.445372 32.6409 0.361113 32.8816 0.361113H42.4872C43.9557 0.361113 45.2798 0.529631 46.4594 0.866668C47.6631 1.20371 48.6622 1.7213 49.4566 2.41945C50.2511 3.11759 50.8048 3.9963 51.1177 5.05556C51.4307 6.09074 51.4427 7.30648 51.1539 8.70278C50.552 11.4713 49.3242 13.5176 47.4705 14.8417C45.6409 16.1657 43.1733 16.8278 40.0677 16.8278H35.1927L33.5316 24.7361C33.4835 25.0009 33.3511 25.2176 33.1344 25.3861C32.9418 25.5546 32.7131 25.6389 32.4483 25.6389H27.5372ZM36.1316 11.8444H40.2844C41.2715 11.8444 42.1502 11.5796 42.9205 11.05C43.715 10.5204 44.2326 9.71389 44.4733 8.63056C44.5937 8.00463 44.6177 7.45093 44.5455 6.96945C44.4733 6.48796 44.2205 6.10278 43.7872 5.81389C43.3779 5.525 42.74 5.38056 41.8733 5.38056H37.54L36.1316 11.8444ZM57.8265 25.6389C57.5617 25.6389 57.3571 25.5546 57.2126 25.3861C57.0682 25.2176 57.02 25.0009 57.0682 24.7361L61.0765 6.03056H54.6487C54.408 6.03056 54.2154 5.9463 54.071 5.77778C53.9265 5.58519 53.8784 5.36852 53.9265 5.12778L54.7571 1.26389C54.8052 0.999076 54.9256 0.782409 55.1182 0.61389C55.3348 0.445372 55.5756 0.361113 55.8404 0.361113H75.2679C75.5327 0.361113 75.7253 0.445372 75.8456 0.61389C75.9901 0.782409 76.0382 0.999076 75.9901 1.26389L75.1595 5.12778C75.1114 5.36852 74.979 5.58519 74.7623 5.77778C74.57 5.9463 74.3413 6.03056 74.0765 6.03056H67.6487L63.6765 24.7361C63.6284 25.0009 63.496 25.2176 63.2793 25.3861C63.0867 25.5546 62.858 25.6389 62.5932 25.6389H57.8265ZM76.7469 25.6389C76.4821 25.6389 76.2775 25.5546 76.133 25.3861C75.9886 25.2176 75.9404 25.0009 75.9886 24.7361L81.008 1.26389C81.0562 0.999076 81.1886 0.782409 81.4053 0.61389C81.6219 0.445372 81.8506 0.361113 82.0914 0.361113H86.9664C87.2071 0.361113 87.3997 0.445372 87.5442 0.61389C87.6886 0.782409 87.7367 0.999076 87.6886 1.26389L82.6691 24.7361C82.621 25.0009 82.4886 25.2176 82.2719 25.3861C82.0793 25.5546 81.8627 25.6389 81.6219 25.6389H76.7469ZM91.5608 25.6389C91.2959 25.6389 91.0913 25.5546 90.9469 25.3861C90.8024 25.2176 90.7543 25.0009 90.8024 24.7361L95.7858 1.26389C95.8339 0.999076 95.9663 0.782409 96.183 0.61389C96.3996 0.445372 96.6404 0.361113 96.9052 0.361113H100.805C101.19 0.361113 101.455 0.469446 101.6 0.686113C101.768 0.878705 101.876 1.03519 101.925 1.15556L105.825 12.5667L114.636 1.15556C114.708 1.03519 114.852 0.878705 115.069 0.686113C115.31 0.469446 115.623 0.361113 116.008 0.361113H119.908C120.173 0.361113 120.377 0.445372 120.522 0.61389C120.666 0.782409 120.714 0.999076 120.666 1.26389L115.683 24.7361C115.635 25.0009 115.502 25.2176 115.286 25.3861C115.069 25.5546 114.828 25.6389 114.564 25.6389H110.23C109.989 25.6389 109.797 25.5546 109.652 25.3861C109.508 25.2176 109.46 25.0009 109.508 24.7361L112.325 11.4111L106.8 18.7417C106.631 18.9343 106.426 19.1269 106.186 19.3194C105.969 19.488 105.692 19.5722 105.355 19.5722H103.477C103.14 19.5722 102.9 19.488 102.755 19.3194C102.611 19.1509 102.502 18.9583 102.43 18.7417L99.8663 11.0861L96.9413 24.7361C96.8932 25.0009 96.7608 25.2176 96.5441 25.3861C96.3515 25.5546 96.1348 25.6389 95.8941 25.6389H91.5608ZM123.415 25.6389C123.15 25.6389 122.946 25.5546 122.801 25.3861C122.657 25.2176 122.609 25.0009 122.657 24.7361L127.676 1.26389C127.725 0.999076 127.857 0.782409 128.074 0.61389C128.29 0.445372 128.519 0.361113 128.76 0.361113H133.635C133.875 0.361113 134.068 0.445372 134.212 0.61389C134.357 0.782409 134.405 0.999076 134.357 1.26389L129.337 24.7361C129.289 25.0009 129.157 25.2176 128.94 25.3861C128.748 25.5546 128.531 25.6389 128.29 25.6389H123.415ZM146.245 26C143.838 26 141.864 25.663 140.323 24.9889C138.806 24.3148 137.711 23.4241 137.037 22.3167C136.387 21.1852 136.158 19.9935 136.351 18.7417C136.399 18.5491 136.495 18.3806 136.639 18.2361C136.808 18.0676 137.001 17.9833 137.217 17.9833H141.839C142.176 17.9833 142.417 18.0435 142.562 18.1639C142.706 18.2843 142.851 18.4407 142.995 18.6333C143.091 18.9944 143.284 19.3435 143.573 19.6806C143.862 20.0176 144.259 20.2944 144.764 20.5111C145.294 20.7037 145.944 20.8 146.714 20.8C148.111 20.8 149.23 20.5833 150.073 20.15C150.915 19.7167 151.409 19.1269 151.553 18.3806C151.698 17.8509 151.601 17.4176 151.264 17.0806C150.951 16.7194 150.386 16.4065 149.567 16.1417C148.773 15.8528 147.701 15.5639 146.353 15.275C144.596 14.8898 143.151 14.3602 142.02 13.6861C140.889 12.988 140.094 12.1093 139.637 11.05C139.203 9.96667 139.143 8.67871 139.456 7.18611C139.938 4.9713 141.129 3.22593 143.031 1.95C144.933 0.650002 147.401 0 150.434 0C151.999 0 153.383 0.216668 154.587 0.650002C155.814 1.08333 156.838 1.66111 157.656 2.38333C158.475 3.10556 159.064 3.87593 159.426 4.69445C159.787 5.48889 159.907 6.2713 159.787 7.04167C159.763 7.23426 159.666 7.41482 159.498 7.58333C159.329 7.72778 159.137 7.8 158.92 7.8H154.081C153.84 7.8 153.624 7.75185 153.431 7.65556C153.263 7.55926 153.118 7.40278 152.998 7.18611C152.998 6.65648 152.721 6.19908 152.167 5.81389C151.614 5.40463 150.879 5.2 149.964 5.2C148.929 5.2 148.063 5.39259 147.364 5.77778C146.666 6.13889 146.233 6.70463 146.064 7.475C145.944 7.95648 146.004 8.37778 146.245 8.73889C146.51 9.1 146.991 9.41296 147.689 9.67778C148.412 9.94259 149.399 10.2194 150.651 10.5083C152.769 10.9176 154.43 11.4713 155.634 12.1694C156.838 12.8435 157.644 13.6981 158.053 14.7333C158.487 15.7685 158.547 17.0324 158.234 18.525C157.704 20.9806 156.416 22.8463 154.37 24.1222C152.348 25.3741 149.639 26 146.245 26ZM162.679 25.6389C162.415 25.6389 162.21 25.5546 162.065 25.3861C161.921 25.2176 161.873 25.0009 161.921 24.7361L166.904 1.26389C166.952 0.999076 167.085 0.782409 167.302 0.61389C167.518 0.445372 167.759 0.361113 168.024 0.361113H171.924C172.309 0.361113 172.574 0.469446 172.718 0.686113C172.887 0.878705 172.995 1.03519 173.043 1.15556L176.943 12.5667L185.754 1.15556C185.827 1.03519 185.971 0.878705 186.188 0.686113C186.428 0.469446 186.741 0.361113 187.127 0.361113H191.027C191.291 0.361113 191.496 0.445372 191.64 0.61389C191.785 0.782409 191.833 0.999076 191.785 1.26389L186.802 24.7361C186.753 25.0009 186.621 25.2176 186.404 25.3861C186.188 25.5546 185.947 25.6389 185.682 25.6389H181.349C181.108 25.6389 180.915 25.5546 180.771 25.3861C180.627 25.2176 180.578 25.0009 180.627 24.7361L183.443 11.4111L177.918 18.7417C177.75 18.9343 177.545 19.1269 177.304 19.3194C177.088 19.488 176.811 19.5722 176.474 19.5722H174.596C174.259 19.5722 174.018 19.488 173.874 19.3194C173.729 19.1509 173.621 18.9583 173.549 18.7417L170.985 11.0861L168.06 24.7361C168.012 25.0009 167.879 25.2176 167.663 25.3861C167.47 25.5546 167.253 25.6389 167.013 25.6389H162.679Z" fill="white"/>
</svg>
