<svg width="195" height="30" viewBox="0 0 195 30" fill="none" xmlns="http://www.w3.org/2000/svg">
<path d="M37.6518 23.3199C37.166 23.3199 36.9231 23.1984 36.6802 23.077C36.5587 22.834 36.4373 22.5911 36.4373 22.2268V8.62351C36.4373 8.25914 36.5587 7.89477 36.6802 7.77331C36.9231 7.5304 37.166 7.40894 37.6518 7.40894H43.3603C45.5466 7.40894 47.1255 7.89477 48.2186 8.74497C49.1903 9.71663 49.7976 11.0527 49.7976 12.8745C49.7976 14.6964 49.3118 16.0324 48.2186 17.0041C47.247 17.8543 45.5466 18.3401 43.3603 18.3401H41.1741V22.1053C41.1741 22.4697 41.0526 22.834 40.9312 22.9555C40.6883 23.1984 40.4454 23.1984 39.9595 23.1984H37.6518V23.3199ZM42.996 14.9393C43.6033 14.9393 44.0891 14.8178 44.4534 14.4535C44.8178 14.0891 44.9393 13.6033 44.9393 12.8745C44.9393 12.1458 44.8178 11.6599 44.4534 11.2956C44.0891 10.9312 43.6033 10.8097 42.996 10.8097H41.1741V14.9393H42.996Z" fill="white"/>
<path d="M55.2633 23.6842C53.8058 23.6842 52.5913 23.1984 51.7411 22.2267C50.8909 21.2551 50.405 19.919 50.405 18.2186C50.405 16.8826 50.6479 15.7895 51.2552 14.8178C51.8625 13.8461 52.7127 13.1174 53.8058 12.5101C54.899 12.0243 56.235 11.6599 57.571 11.6599C58.7856 11.6599 59.7573 11.7814 60.7289 12.0243C61.7006 12.2672 62.4293 12.6316 63.2795 13.1174V22.4696C63.2795 22.7125 63.2795 22.9555 63.1581 23.0769C63.0366 23.1984 62.7937 23.1984 62.5508 23.1984H60.1216C60.0002 23.1984 59.7573 23.1984 59.7573 23.0769C59.6358 22.9555 59.6358 22.9555 59.5143 22.834L59.15 22.1053C58.6641 22.5911 58.1783 22.9555 57.571 23.1984C56.9637 23.5627 56.1135 23.6842 55.2633 23.6842ZM56.9637 20.5263C57.571 20.5263 58.0569 20.4049 58.4212 20.0405C58.7856 19.7976 58.9071 19.3117 58.9071 18.8259V15.1822C58.6641 15.0607 58.1783 14.9393 57.8139 14.9393C56.9637 14.9393 56.3564 15.1822 55.8706 15.7895C55.3848 16.3968 55.1419 17.1255 55.1419 18.2186C55.1419 19.6761 55.7492 20.5263 56.9637 20.5263Z" fill="white"/>
<path d="M66.5588 23.3197C66.073 23.3197 65.8301 23.1983 65.5871 23.0768C65.3442 22.8339 65.3442 22.591 65.3442 22.2266V12.7529C65.3442 12.51 65.3442 12.2671 65.4657 12.1456C65.5872 12.0242 65.8301 12.0242 66.073 12.0242H68.5021C68.745 12.0242 68.8665 12.0242 68.8665 12.1456C68.988 12.1456 68.988 12.2671 69.1094 12.3885L69.2309 13.1173C69.7167 12.6315 70.2025 12.3885 70.9313 12.1456C71.66 11.9027 72.3888 11.7812 73.3604 11.7812C74.575 11.7812 75.6681 12.1456 76.3969 12.8744C77.1256 13.6031 77.6114 14.5748 77.6114 16.0323V22.2266C77.6114 22.591 77.49 22.9553 77.3685 23.0768C77.2471 23.3197 76.8827 23.3197 76.3969 23.3197H74.0892C73.6033 23.3197 73.3604 23.1983 73.1175 23.0768C72.8746 22.8339 72.8746 22.591 72.8746 22.2266V16.2752C72.8746 15.7893 72.7531 15.425 72.5102 15.3035C72.2673 15.0606 72.0244 14.9391 71.5386 14.9391C71.0527 14.9391 70.6884 15.0606 70.4455 15.3035C70.2025 15.5464 70.0811 15.9108 70.0811 16.2752V22.1051C70.0811 22.4695 69.9596 22.8339 69.8382 22.9553C69.7167 23.1983 69.3523 23.1983 68.8665 23.1983H66.5588V23.3197Z" fill="white"/>
<path d="M85.8703 23.6841C83.6841 23.6841 81.9837 23.1983 80.7691 22.1051C79.5546 21.1335 78.9473 19.676 78.9473 17.7327C78.9473 16.5181 79.1902 15.5464 79.7975 14.5748C80.2833 13.7246 81.1335 12.9958 82.1052 12.51C83.1983 12.0242 84.4129 11.7812 85.7489 11.7812C86.842 11.7812 87.6922 11.9027 88.421 12.1456C89.1497 12.3885 89.8784 12.6315 90.3643 13.1173C90.4857 13.2387 90.6072 13.3602 90.6072 13.4817C90.6072 13.6031 90.4857 13.7246 90.3643 13.9675L89.3926 15.6679C89.2712 15.9108 89.1497 16.0323 89.0282 16.0323C88.9068 16.0323 88.7853 15.9108 88.5424 15.7893C88.178 15.5464 87.6922 15.3035 87.3278 15.1821C86.9635 15.0606 86.4776 14.9391 85.9918 14.9391C85.2631 14.9391 84.5343 15.1821 84.0485 15.6679C83.5626 16.1537 83.3197 16.8825 83.3197 17.7327C83.3197 18.5829 83.5626 19.3116 84.0485 19.7974C84.5343 20.2833 85.1416 20.5262 85.9918 20.5262C86.4776 20.5262 86.9635 20.4047 87.3278 20.2833C87.6922 20.1618 88.178 19.9189 88.5424 19.676C88.7853 19.5545 88.9068 19.4331 89.0282 19.4331C89.1497 19.4331 89.2712 19.5545 89.3926 19.7974L90.4857 21.6193C90.6072 21.7408 90.6072 21.8622 90.6072 21.9837C90.6072 22.1051 90.4857 22.2266 90.3643 22.3481C89.757 22.7124 89.0282 23.0768 88.178 23.3197C87.8137 23.5626 86.9635 23.6841 85.8703 23.6841Z" fill="white"/>
<path d="M96.9232 23.6842C95.4658 23.6842 94.2512 23.1984 93.401 22.2267C92.5508 21.2551 92.0649 19.919 92.0649 18.2186C92.0649 16.8826 92.3079 15.7895 92.9151 14.8178C93.5224 13.8461 94.3726 13.1174 95.4657 12.5101C96.5589 12.0243 97.8949 11.6599 99.2309 11.6599C100.446 11.6599 101.417 11.7814 102.389 12.0243C103.36 12.2672 104.089 12.6316 104.939 13.1174V22.4696C104.939 22.7125 104.939 22.9555 104.818 23.0769C104.697 23.1984 104.454 23.1984 104.211 23.1984H101.782C101.66 23.1984 101.417 23.1984 101.417 23.0769C101.296 22.9555 101.296 22.9555 101.174 22.834L100.81 22.1053C100.324 22.5911 99.8382 22.9555 99.2309 23.1984C98.6236 23.5627 97.8949 23.6842 96.9232 23.6842ZM98.7451 20.5263C99.3524 20.5263 99.8382 20.4049 100.203 20.0405C100.567 19.7976 100.688 19.3117 100.688 18.8259V15.1822C100.446 15.0607 99.9597 14.9393 99.5953 14.9393C98.7451 14.9393 98.1378 15.1822 97.652 15.7895C97.1662 16.3968 96.9232 17.1255 96.9232 18.2186C96.8018 19.6761 97.4091 20.5263 98.7451 20.5263Z" fill="white"/>
<path d="M119.757 22.4697C119.879 22.5911 119.879 22.7126 119.879 22.834C119.879 22.9555 119.879 23.077 119.757 23.1984C119.636 23.3199 119.515 23.3199 119.393 23.3199H115.749C115.506 23.3199 115.385 23.3199 115.264 23.3199C115.142 23.3199 115.021 23.1984 114.899 23.077L111.741 18.7045V22.1053C111.741 22.4697 111.62 22.834 111.498 22.9555C111.255 23.1984 111.012 23.1984 110.527 23.1984H108.219C107.733 23.1984 107.49 23.077 107.247 22.9555C107.126 22.7126 107.004 22.4697 107.004 22.1053V8.62351C107.004 8.25914 107.126 7.89477 107.247 7.77331C107.49 7.5304 107.733 7.40894 108.219 7.40894H110.527C111.012 7.40894 111.255 7.5304 111.498 7.77331C111.741 8.01623 111.741 8.25914 111.741 8.62351V16.3968L114.778 12.3887C114.899 12.2672 115.021 12.1458 115.142 12.1458C115.264 12.1458 115.385 12.0243 115.628 12.0243H119.272C119.393 12.0243 119.515 12.0243 119.636 12.1458C119.757 12.2672 119.757 12.3887 119.757 12.5102C119.757 12.6316 119.757 12.7531 119.636 12.8745L115.628 17.4899L119.757 22.4697Z" fill="white"/>
<path d="M127.287 23.6842C125.951 23.6842 124.858 23.4413 123.765 23.0769C122.794 22.5911 121.943 21.9838 121.336 21.1336C120.729 20.2834 120.486 19.1903 120.486 17.9757C120.486 16.0324 121.093 14.4534 122.186 13.4818C123.279 12.3887 124.98 11.9028 127.045 11.9028C129.109 11.9028 130.688 12.3887 131.66 13.4818C132.753 14.4534 133.239 15.9109 133.239 17.7328C133.239 18.4615 132.875 18.9474 132.267 18.9474H124.98C124.98 19.6761 125.223 20.1619 125.709 20.5263C126.194 20.8907 127.045 21.0121 128.016 21.0121C128.623 21.0121 129.231 21.0121 129.595 20.8907C130.081 20.7692 130.445 20.5263 130.931 20.4049C131.174 20.2834 131.296 20.2834 131.296 20.2834C131.417 20.2834 131.538 20.4049 131.66 20.5263L132.51 21.9838C132.632 22.1053 132.632 22.2267 132.632 22.3482C132.632 22.4696 132.51 22.5911 132.389 22.7125C131.781 23.0769 131.053 23.4413 130.202 23.6842C129.231 23.5628 128.381 23.6842 127.287 23.6842ZM129.109 16.3968C129.109 15.7895 128.988 15.3036 128.623 15.0607C128.259 14.6964 127.773 14.5749 127.045 14.5749C126.316 14.5749 125.83 14.6964 125.466 15.0607C125.101 15.4251 124.98 15.7895 124.98 16.3968H129.109Z" fill="white"/>
<path d="M141.376 23.6841C140.04 23.6841 138.826 23.5627 137.611 23.3197C136.397 23.0768 135.546 22.591 134.818 22.1052C134.575 21.9837 134.453 21.7408 134.453 21.6193C134.453 21.4979 134.453 21.3764 134.575 21.255L135.668 19.4331C135.789 19.1902 135.911 19.1902 136.032 19.1902C136.154 19.1902 136.275 19.1902 136.397 19.3116C137.004 19.676 137.611 19.9189 138.34 20.1618C139.069 20.4048 139.797 20.5262 140.526 20.5262C141.255 20.5262 141.741 20.4048 142.105 20.1618C142.47 19.9189 142.591 19.5546 142.591 19.0687C142.591 18.5829 142.348 18.2185 141.984 17.9756C141.619 17.7327 140.891 17.3683 139.798 17.004C138.219 16.3967 137.004 15.7894 136.154 15.0606C135.304 14.3319 134.818 13.2388 134.818 12.0242C134.818 10.4453 135.425 9.35213 136.518 8.50193C137.611 7.65173 139.069 7.28735 140.891 7.28735C142.227 7.28735 143.32 7.40881 144.17 7.65173C145.142 7.89464 145.87 8.25901 146.478 8.62338C146.721 8.8663 146.842 8.98776 146.842 9.23067C146.842 9.35213 146.842 9.47359 146.721 9.59505L145.627 11.4169C145.506 11.6598 145.385 11.6598 145.263 11.6598C145.142 11.6598 145.02 11.6598 144.899 11.5384C144.049 10.9311 142.955 10.6882 141.619 10.6882C140.891 10.6882 140.405 10.8096 140.04 11.0525C139.676 11.2954 139.555 11.6598 139.555 12.1457C139.555 12.51 139.676 12.7529 139.798 12.9959C140.04 13.2388 140.283 13.3602 140.526 13.6031C140.891 13.7246 141.376 13.9675 141.984 14.2104L142.47 14.3319C143.563 14.8177 144.534 15.1821 145.142 15.6679C145.87 16.0323 146.356 16.6396 146.721 17.2469C147.085 17.8542 147.206 18.5829 147.206 19.4331C147.206 20.7691 146.721 21.9837 145.627 22.7125C144.899 23.1983 143.32 23.6841 141.376 23.6841Z" fill="white"/>
<path d="M152.429 23.32C152.186 23.32 152.065 23.32 151.943 23.1985C151.822 23.077 151.7 22.9556 151.7 22.7127L148.664 12.6317C148.664 12.5102 148.664 12.5102 148.664 12.3888C148.664 12.1459 148.785 12.0244 149.15 12.0244H152.186C152.429 12.0244 152.55 12.0244 152.672 12.1459C152.793 12.2673 152.793 12.2673 152.915 12.5102L154.129 17.8544L155.708 13.6034C155.83 13.3604 155.83 13.239 155.951 13.239C156.073 13.1175 156.194 13.1175 156.437 13.1175H157.895C158.138 13.1175 158.259 13.1175 158.38 13.239C158.502 13.3604 158.502 13.4819 158.623 13.6034L160.202 17.8544L161.538 12.5102C161.538 12.3888 161.66 12.2673 161.781 12.1459C161.903 12.0244 162.024 12.0244 162.146 12.0244H165.304C165.668 12.0244 165.789 12.1459 165.789 12.3888C165.789 12.3888 165.789 12.5102 165.789 12.6317L162.753 22.7127C162.631 22.9556 162.631 23.077 162.51 23.1985C162.389 23.32 162.267 23.32 162.024 23.32H159.716C159.474 23.32 159.352 23.32 159.231 23.1985C159.109 23.077 158.988 22.9556 158.988 22.7127L157.409 18.4617L155.83 22.7127C155.708 22.9556 155.708 23.077 155.587 23.1985C155.465 23.32 155.344 23.32 155.101 23.32H152.429Z" fill="white"/>
<path d="M171.377 23.6842C169.919 23.6842 168.705 23.1984 167.854 22.2267C167.004 21.2551 166.518 19.919 166.518 18.2186C166.518 16.8826 166.761 15.7895 167.369 14.8178C167.976 13.8461 168.826 13.1174 169.919 12.5101C171.012 12.0243 172.348 11.6599 173.684 11.6599C174.899 11.6599 175.871 11.7814 176.842 12.0243C177.814 12.2672 178.543 12.6316 179.393 13.1174V22.4696C179.393 22.7125 179.393 22.9555 179.271 23.0769C179.15 23.1984 178.907 23.1984 178.664 23.1984H176.235C176.113 23.1984 175.992 23.1984 175.871 23.0769C175.749 22.9555 175.749 22.9555 175.628 22.834L175.263 22.1053C174.777 22.5911 174.292 22.9555 173.684 23.1984C173.077 23.5627 172.348 23.6842 171.377 23.6842ZM173.198 20.5263C173.806 20.5263 174.292 20.4049 174.656 20.0405C175.02 19.7976 175.142 19.3117 175.142 18.8259V15.1822C174.899 15.0607 174.413 14.9393 174.049 14.9393C173.198 14.9393 172.591 15.1822 172.105 15.7895C171.62 16.3968 171.377 17.1255 171.377 18.2186C171.255 19.6761 171.862 20.5263 173.198 20.5263Z" fill="white"/>
<path d="M182.672 28.0567C182.186 28.0567 181.943 27.9352 181.7 27.8138C181.579 27.5709 181.457 27.3279 181.457 26.9636V13.6032C182.186 13.1174 183.036 12.6316 184.129 12.3887C185.222 12.0243 186.316 11.9028 187.409 11.9028C192.146 11.9028 194.453 13.8462 194.453 17.8543C194.453 19.6761 193.967 21.1336 192.996 22.2267C192.024 23.3198 190.567 23.8057 188.745 23.8057C188.259 23.8057 187.773 23.6842 187.287 23.5628C186.801 23.4413 186.437 23.3198 186.073 23.0769V26.9636C186.073 27.3279 185.951 27.6923 185.83 27.8138C185.587 28.0567 185.344 28.0567 184.858 28.0567H182.672ZM187.773 20.5263C188.502 20.5263 188.988 20.2834 189.231 19.7976C189.595 19.3117 189.716 18.583 189.716 17.7328C189.716 16.7611 189.473 16.0324 189.109 15.5466C188.745 15.1822 188.137 14.9393 187.287 14.9393C186.801 14.9393 186.316 15.0607 186.073 15.1822V18.8259C186.073 19.3117 186.194 19.7976 186.559 20.0405C186.801 20.4049 187.287 20.5263 187.773 20.5263Z" fill="white"/>
<path fill-rule="evenodd" clip-rule="evenodd" d="M5.46559 4.73684C4.97976 2.30769 6.92308 0 9.35223 0C11.5385 0 13.3603 1.82186 13.3603 4.0081V8.8664C13.9676 8.8664 14.4534 8.8664 15.0607 8.8664C15.5466 8.8664 16.1538 8.8664 16.6397 8.8664V4.0081C16.6397 1.82186 18.4615 0 20.6478 0C23.0769 0 25.0202 2.30769 24.5344 4.73684L23.4413 10.4453C27.085 12.0243 29.8785 14.8178 29.8785 18.3401V20.4049C29.8785 23.3198 27.9352 25.749 25.2632 27.3279C22.5911 29.0283 18.9474 30 14.9393 30C10.9312 30 7.28745 29.0283 4.61538 27.3279C1.94332 25.749 0 23.3198 0 20.4049V18.3401C0 14.8178 2.79352 12.0243 6.43725 10.4453L5.46559 4.73684ZM22.1053 11.2955L23.3198 4.61538C23.6842 2.91498 22.3482 1.33603 20.6478 1.33603C19.0688 1.33603 17.8543 2.55061 17.8543 4.12956V10.3239C17.4899 10.3239 17.0041 10.2024 16.6397 10.2024C16.1538 10.2024 15.5466 10.2024 15.0607 10.2024C14.4534 10.2024 13.9676 10.2024 13.3603 10.3239C12.996 10.3239 12.5101 10.4453 12.1458 10.4453V4.25101C12.1458 2.67207 10.9312 1.45749 9.35223 1.45749C7.65182 1.45749 6.31579 3.03644 6.68016 4.73684L7.89474 11.5385C4.0081 12.996 1.33603 15.668 1.33603 18.7045V20.7692C1.33603 25.3846 7.40891 29.1498 14.9393 29.1498C22.4696 29.1498 28.5425 25.3846 28.5425 20.7692V18.7045C28.664 15.4251 25.9919 12.753 22.1053 11.2955Z" fill="#633001"/>
<path d="M28.664 20.5263C28.664 25.1417 22.5911 28.9069 15.0608 28.9069C7.53039 28.9069 1.45752 25.1417 1.45752 20.5263V18.4615H28.7855V20.5263H28.664Z" fill="#FEDC90"/>
<path fill-rule="evenodd" clip-rule="evenodd" d="M6.68007 4.49395C6.3157 2.79355 7.65173 1.2146 9.35214 1.2146C10.9311 1.2146 12.1457 2.42917 12.1457 4.00812V10.3239C13.1173 10.2025 14.089 10.081 15.0606 10.081C16.0323 10.081 17.004 10.2025 17.8542 10.2025V4.00812C17.8542 2.42917 19.0687 1.2146 20.6477 1.2146C22.3481 1.2146 23.6841 2.79355 23.3198 4.49395L22.1052 11.1741C26.1133 12.6316 28.7853 15.3037 28.7853 18.3401C28.7853 22.9555 22.7125 26.7207 15.1821 26.7207C7.65173 26.7207 1.57886 22.9555 1.57886 18.3401C1.57886 15.3037 4.25092 12.6316 8.13756 11.1741L6.68007 4.49395Z" fill="#D1884F"/>
<path d="M11.2954 17.8543C11.2954 19.0689 10.5666 20.162 9.83786 20.162C9.10912 20.162 8.38037 19.1904 8.38037 17.8543C8.38037 16.6398 9.10912 15.5466 9.83786 15.5466C10.5666 15.5466 11.2954 16.5183 11.2954 17.8543Z" fill="#633001"/>
<path d="M21.7409 17.8543C21.7409 19.0689 21.0122 20.162 20.2834 20.162C19.4332 20.162 18.8259 19.1904 18.8259 17.8543C18.8259 16.6398 19.5547 15.5466 20.2834 15.5466C21.0122 15.5466 21.7409 16.5183 21.7409 17.8543Z" fill="#633001"/>
</svg>
