<svg width="184" height="40" viewBox="0 0 184 40" fill="none" xmlns="http://www.w3.org/2000/svg">
<path d="M56.9761 35.9808V10.7674H60.7275L61.0847 12.8026H61.2634C62.3352 11.4086 64.1567 10.4102 66.6927 10.4102C71.334 10.4102 75.0503 14.1966 75.0503 19.8014C75.0503 25.4061 71.3372 29.1926 66.6927 29.1926C64.1917 29.1926 62.4436 28.1559 61.5154 26.9788H61.3367V35.9776H56.9793L56.9761 35.9808ZM70.6897 19.8046C70.6897 16.5189 68.5811 14.4486 66.01 14.4486C63.4389 14.4486 61.3304 16.5189 61.3304 19.8046C61.3304 23.0902 63.4389 25.1605 66.01 25.1605C68.5811 25.1605 70.6897 23.0902 70.6897 19.8046Z" fill="white"/>
<path d="M77.2612 19.8014C77.2612 14.337 81.1881 10.4102 86.4387 10.4102C91.6894 10.4102 95.6162 14.337 95.6162 19.8014C95.6162 25.2658 91.6894 29.1926 86.4387 29.1926C81.1881 29.1926 77.2612 25.2275 77.2612 19.8014ZM91.2237 19.8014C91.2237 16.5859 89.08 14.4454 86.4387 14.4454C83.7974 14.4454 81.6187 16.5891 81.6187 19.8014C81.6187 23.0137 83.7974 25.1222 86.4387 25.1222C89.08 25.1222 91.2237 23.0168 91.2237 19.8014Z" fill="white"/>
<path d="M98.7739 28.8368V3.83716H103.131V28.8368H98.7739Z" fill="white"/>
<path d="M119.308 10.7642H123.949L116.092 32.727C115.307 34.9057 114.236 35.9775 111.412 35.9775H107.199V31.9422H110.771C111.416 31.9422 111.77 31.6201 111.987 31.0842L112.414 29.9071L105.058 10.7642H109.699L114.379 23.3007H115.094L119.308 10.7642Z" fill="white"/>
<path d="M124.782 29.7317H129.209C129.388 30.9088 130.565 32.5165 133.353 32.5165C135.959 32.5165 137.675 30.8737 137.675 28.3728V25.8368H137.497C136.533 26.8735 134.747 27.8018 132.46 27.8018C127.818 27.8018 124.246 24.229 124.246 19.0868C124.246 13.9446 127.818 10.4102 132.46 10.4102C134.852 10.4102 136.603 11.3735 137.71 12.7324H137.889L138.246 10.7674H142.033V28.3728C142.033 33.1577 138.817 36.3381 133.353 36.3381C127.247 36.3381 124.89 32.3379 124.782 29.7317ZM137.675 19.09C137.675 16.2701 135.675 14.3051 133.139 14.3051C130.603 14.3051 128.638 16.2701 128.638 19.09C128.638 21.9099 130.638 23.91 133.139 23.91C135.64 23.91 137.675 21.945 137.675 19.09Z" fill="white"/>
<path d="M145.06 19.8014C145.06 14.337 148.987 10.4102 154.238 10.4102C159.488 10.4102 163.415 14.337 163.415 19.8014C163.415 25.2658 159.488 29.1926 154.238 29.1926C148.987 29.1926 145.06 25.2275 145.06 19.8014ZM159.023 19.8014C159.023 16.5859 156.879 14.4454 154.238 14.4454C151.597 14.4454 149.418 16.5891 149.418 19.8014C149.418 23.0137 151.597 25.1222 154.238 25.1222C156.879 25.1222 159.023 23.0168 159.023 19.8014Z" fill="white"/>
<path d="M166.449 28.8385V10.7674H170.197L170.554 12.4804H170.733C171.447 11.6606 173.234 10.4102 175.945 10.4102C180.089 10.4102 183.088 13.4087 183.088 17.9799V28.8353H178.73V18.5509C178.73 16.2286 177.087 14.5507 174.838 14.5507C172.589 14.5507 170.803 16.302 170.803 18.5509V28.8353H166.446L166.449 28.8385Z" fill="white"/>
<path d="M33.5296 28.1701L44.2414 21.9847C44.8092 21.6562 45.1601 21.0469 45.1601 20.393V8.02233C45.1601 7.36839 44.8092 6.75911 44.2414 6.43054L33.5296 0.245229C32.9618 -0.083336 32.2568 -0.0801461 31.6922 0.245229L20.9803 6.43054C20.4125 6.75911 20.0616 7.36839 20.0616 8.02233V30.1287L12.5493 34.4638L5.03693 30.1287V21.4552L12.5493 17.1201L17.5033 19.9815V14.163L13.468 11.8311C13.1904 11.6716 12.8715 11.5855 12.5493 11.5855C12.2271 11.5855 11.9081 11.6716 11.6306 11.8311L0.918706 18.0164C0.350894 18.345 0 18.9543 0 19.6082V31.9789C0 32.6328 0.350894 33.2421 0.918706 33.5707L11.6306 39.756C12.1984 40.0813 12.9002 40.0813 13.468 39.756L24.1798 33.5707C24.7476 33.2421 25.0985 32.6328 25.0985 31.9789V9.8725L25.2325 9.79594L32.6077 5.53736L40.12 9.8725V18.546L32.6077 22.8811L27.6601 20.0261V25.8446L31.689 28.1701C32.2568 28.4954 32.9618 28.4954 33.5264 28.1701H33.5296Z" fill="url(#paint0_linear_621_439)"/>
<defs>
<linearGradient id="paint0_linear_621_439" x1="-0.146739" y1="33.191" x2="43.2207" y2="8.01914" gradientUnits="userSpaceOnUse">
<stop stop-color="#A726C1"/>
<stop offset="0.88" stop-color="#803BDF"/>
<stop offset="1" stop-color="#7B3FE4"/>
</linearGradient>
</defs>
</svg>
