<svg id="Layer_2" xmlns="http://www.w3.org/2000/svg" viewBox="0 0 937 202.8"><defs><style>.cls-1{fill:#fff;}.cls-2{fill:#ffc702;}</style></defs><g id="Layer_1-2"><path class="cls-1" d="m282.84,2.26c4.35,0,8.35.67,11.99,2.01,3.64,1.34,6.78,3.29,9.42,5.84,2.64,2.55,4.69,5.65,6.15,9.29,1.46,3.64,2.2,7.81,2.2,12.49s-.73,8.87-2.2,12.55c-1.46,3.68-3.51,6.78-6.15,9.29-2.64,2.51-5.77,4.44-9.42,5.77-3.64,1.34-7.64,2.01-11.99,2.01h-22.72v28.62h-19.71V2.26h42.43Zm-1.76,42.18c3.35,0,6.13-1.07,8.35-3.2,2.22-2.13,3.33-5.29,3.33-9.48s-1.03-7.41-3.08-9.42c-2.05-2.01-4.88-3.01-8.47-3.01h-21.09v25.11h20.96Z"/><path class="cls-1" d="m390.05,80.97c.75,1.76,1.51,3.26,2.26,4.52.75,1.25,1.71,2.22,2.89,2.89v1.76h-22.09c-.84-.67-1.47-1.4-1.88-2.2-.42-.79-.75-1.65-1-2.57l-5.52-13.56c-.92-2.34-1.82-4.29-2.7-5.84-.88-1.55-1.88-2.78-3.01-3.7-1.13-.92-2.43-1.57-3.89-1.95-1.47-.38-3.24-.57-5.34-.57h-8.16v30.38h-19.71V2.26h45.19c8.54,0,15.08,2.13,19.65,6.4,4.56,4.27,6.84,10.13,6.84,17.57,0,8.04-2.28,14.06-6.84,18.08-4.56,4.02-10.98,6.28-19.27,6.78v5.77c2.43.34,4.54.73,6.34,1.19,1.8.46,3.41,1.24,4.83,2.32,1.42,1.09,2.74,2.53,3.95,4.33,1.21,1.8,2.45,4.21,3.7,7.22l3.77,9.04Zm-27.49-38.29c3.52,0,6.3-1.02,8.35-3.08s3.08-4.96,3.08-8.72c0-7.7-3.85-11.55-11.55-11.55h-20.84v23.35h20.96Z"/><path class="cls-1" d="m398.46,46.2c0-6.7,1.15-12.87,3.45-18.52,2.3-5.65,5.48-10.52,9.54-14.62,4.06-4.1,8.89-7.3,14.5-9.6,5.61-2.3,11.68-3.45,18.2-3.45s12.59,1.15,18.2,3.45c5.61,2.3,10.44,5.5,14.5,9.6,4.06,4.1,7.24,8.98,9.54,14.62,2.3,5.65,3.45,11.82,3.45,18.52s-1.15,12.87-3.45,18.52c-2.3,5.65-5.48,10.53-9.54,14.62-4.06,4.1-8.89,7.3-14.5,9.6-5.61,2.3-11.67,3.45-18.2,3.45s-12.6-1.15-18.2-3.45c-5.61-2.3-10.44-5.5-14.5-9.6-4.06-4.1-7.24-8.98-9.54-14.62-2.3-5.65-3.45-11.82-3.45-18.52Zm19.96,0c0,4.27.63,8.16,1.88,11.67,1.25,3.51,3.01,6.55,5.27,9.1,2.26,2.55,4.98,4.52,8.16,5.9,3.18,1.38,6.65,2.07,10.42,2.07,4.02,0,7.64-.73,10.86-2.2,3.22-1.46,5.92-3.47,8.1-6.03,2.18-2.55,3.85-5.59,5.02-9.1,1.17-3.52,1.76-7.32,1.76-11.42s-.59-8.03-1.76-11.55c-1.17-3.51-2.87-6.55-5.08-9.1-2.22-2.55-4.92-4.54-8.1-5.96-3.18-1.42-6.78-2.13-10.8-2.13s-7.49.69-10.67,2.07c-3.18,1.38-5.88,3.35-8.1,5.9-2.22,2.55-3.93,5.59-5.15,9.1-1.21,3.51-1.82,7.41-1.82,11.67Z"/><path class="cls-1" d="m542.7,2.26c4.35,0,8.35.67,11.99,2.01,3.64,1.34,6.78,3.29,9.42,5.84,2.64,2.55,4.69,5.65,6.15,9.29,1.46,3.64,2.2,7.81,2.2,12.49s-.73,8.87-2.2,12.55c-1.47,3.68-3.52,6.78-6.15,9.29-2.64,2.51-5.77,4.44-9.42,5.77-3.64,1.34-7.64,2.01-11.99,2.01h-22.72v28.62h-19.71V2.26h42.43Zm-1.76,42.18c3.35,0,6.13-1.07,8.35-3.2,2.22-2.13,3.33-5.29,3.33-9.48s-1.03-7.41-3.08-9.42c-2.05-2.01-4.88-3.01-8.47-3.01h-21.09v25.11h20.96Z"/><path class="cls-1" d="m601.45,72.69h43.69v17.45h-63.4V2.26h63.27v17.45h-43.56v17.7h39.79v16.19h-39.79v19.08Z"/><path class="cls-1" d="m655.05,2.26h19.71v70.3h40.42v17.58h-60.13V2.26Z"/><path class="cls-1" d="m722.71,2.26h19.71v70.3h40.42v17.58h-60.13V2.26Z"/><path class="cls-1" d="m810.08,72.69h43.69v17.45h-63.4V2.26h63.27v17.45h-43.56v17.7h39.79v16.19h-39.79v19.08Z"/><path class="cls-1" d="m931.85,80.97c.75,1.76,1.51,3.26,2.26,4.52.75,1.25,1.71,2.22,2.89,2.89v1.76h-22.09c-.84-.67-1.47-1.4-1.88-2.2-.42-.79-.75-1.65-1-2.57l-5.52-13.56c-.92-2.34-1.82-4.29-2.7-5.84-.88-1.55-1.88-2.78-3.01-3.7-1.13-.92-2.43-1.57-3.89-1.95-1.46-.38-3.24-.57-5.33-.57h-8.16v30.38h-19.71V2.26h45.19c8.54,0,15.08,2.13,19.65,6.4,4.56,4.27,6.84,10.13,6.84,17.57,0,8.04-2.28,14.06-6.84,18.08-4.56,4.02-10.98,6.28-19.27,6.78v5.77c2.43.34,4.54.73,6.34,1.19,1.8.46,3.41,1.24,4.83,2.32,1.42,1.09,2.74,2.53,3.95,4.33,1.21,1.8,2.45,4.21,3.7,7.22l3.77,9.04Zm-27.49-38.29c3.51,0,6.3-1.02,8.35-3.08s3.08-4.96,3.08-8.72c0-7.7-3.85-11.55-11.55-11.55h-20.84v23.35h20.96Z"/><path class="cls-1" d="m240.41,112.66h19.71v33.89h33.89v-33.89h19.83v87.88h-19.83v-35.65h-33.89v35.65h-19.71v-87.88Z"/><path class="cls-1" d="m344.85,183.09h43.69v17.45h-63.4v-87.88h63.27v17.45h-43.56v17.7h39.79v16.19h-39.79v19.08Z"/><path class="cls-1" d="m459.84,200.54l-5.02-13.93h-38.29l-5.02,13.93h-20.34l33.14-87.88h22.6l33.27,87.88h-20.34Zm-37.28-30.88h26.24l-4.9-13.68c-.67-2.01-1.25-3.85-1.76-5.52-.5-1.67-.94-3.39-1.32-5.15-.38-1.76-.69-3.64-.94-5.65-.25-2.01-.5-4.31-.75-6.91h-6.9c-.25,2.68-.52,5.04-.82,7.09-.29,2.05-.63,3.96-1,5.71-.38,1.76-.8,3.45-1.25,5.08-.46,1.63-1.03,3.41-1.7,5.33l-4.9,13.68Z"/><path class="cls-1" d="m523.74,112.66c6.03,0,11.49.96,16.38,2.89,4.9,1.93,9.08,4.75,12.55,8.47,3.47,3.73,6.17,8.33,8.1,13.81,1.92,5.48,2.89,11.74,2.89,18.77s-.92,13.41-2.76,18.89c-1.84,5.48-4.5,10.09-7.97,13.81-3.47,3.72-7.7,6.53-12.68,8.41-4.98,1.88-10.61,2.82-16.88,2.82h-36.66v-87.88h37.03Zm-1.63,70.43c3.26,0,6.23-.44,8.91-1.32,2.68-.88,4.98-2.34,6.91-4.39,1.92-2.05,3.41-4.77,4.46-8.16,1.05-3.39,1.57-7.59,1.57-12.62,0-8.95-1.84-15.61-5.52-19.96-3.68-4.35-9.12-6.53-16.32-6.53h-15.69v52.98h15.69Z"/><path class="cls-1" d="m587.76,170.16c.42,5.36,2.47,9.42,6.15,12.18,3.68,2.76,8.45,4.14,14.31,4.14,4.77,0,8.49-.92,11.17-2.76,2.68-1.84,4.02-4.43,4.02-7.78s-1.42-5.98-4.27-7.66c-2.85-1.67-7.78-3.05-14.81-4.14-10.88-1.67-18.83-4.62-23.85-8.85-5.02-4.23-7.53-10.19-7.53-17.89,0-4.27.82-8.08,2.45-11.42,1.63-3.35,3.93-6.17,6.9-8.47,2.97-2.3,6.55-4.06,10.73-5.27,4.18-1.21,8.83-1.82,13.93-1.82s9.94.63,14.25,1.88c4.31,1.25,8.05,3.03,11.24,5.33,3.18,2.3,5.71,5.06,7.59,8.29,1.88,3.22,2.99,6.8,3.33,10.73l-18.33,4.02c-.67-4.77-2.59-8.35-5.77-10.73-3.18-2.38-7.37-3.58-12.55-3.58-4.69,0-8.2.86-10.54,2.57-2.34,1.72-3.51,4-3.51,6.84,0,2.01.46,3.64,1.38,4.9.92,1.25,2.36,2.3,4.33,3.14,1.96.84,4.48,1.57,7.53,2.2,3.05.63,6.72,1.28,10.98,1.95,9.04,1.51,15.69,4.42,19.96,8.72,4.27,4.31,6.4,10.27,6.4,17.89,0,4.52-.88,8.54-2.64,12.05-1.76,3.51-4.25,6.46-7.47,8.85-3.22,2.38-7.03,4.21-11.42,5.46-4.39,1.25-9.23,1.88-14.5,1.88-5.77,0-10.9-.69-15.38-2.07-4.48-1.38-8.29-3.37-11.42-5.96-3.14-2.59-5.57-5.69-7.28-9.29-1.72-3.6-2.7-7.57-2.95-11.93l17.58-3.39Z"/><path class="cls-2" d="m99.3,1.8h0C44.44,1.87,0,46.31,0,101.1v.28c0,54.9,44.61,99.38,99.58,99.3l73.3-.1v-49.62h26v-49.86C198.88,46.2,154.28,1.72,99.3,1.8Zm74.64,113.84c-.87,3.43-1.28,5.05-2.15,8.48-.41,1.62-2.4,3.42-4.21,3.73-19.9.5-37.58-5.3-54.75-12.55,6.83,16.42,15.11,32.14,28.88,45.25,1.55,1.07,1.62,2.71.15,3.59-2.94,1.75-4.52,2.69-7.46,4.44-1.47.88-4.02.71-5.57-.36-14.37-13.69-22.76-30.2-29.76-47.35-6.72,16.35-11.93,33.24-11.5,52.14.26,1.99-.89,3.13-2.52,2.72-3.43-.87-5.05-1.28-8.48-2.15-1.62-.41-3.35-2.29-3.73-4.21-.5-19.9,5.3-37.58,12.55-54.75-16.42,6.83-32.14,15.11-45.25,28.88-1.07,1.55-2.71,1.62-3.59.15-1.75-2.94-2.69-4.52-4.44-7.46-.87-1.47-.71-4.02.36-5.57,13.7-14.38,30.22-22.78,47.4-29.78-16.37-6.74-33.28-11.95-52.19-11.48-1.99.26-3.13-.89-2.72-2.52.87-3.43,1.28-5.05,2.15-8.48.34-1.74,2.4-3.42,4.21-3.73,19.83-.5,37.45,5.25,54.57,12.44-6.81-16.35-15.08-32.01-28.81-45.08-1.55-1.07-1.62-2.71-.15-3.59,2.94-1.75,4.52-2.69,7.46-4.44,1.47-.87,4.02-.71,5.57.36,14.4,13.7,22.8,30.28,29.81,47.51,6.77-16.43,12.03-33.39,11.55-52.37-.26-1.99.89-3.13,2.52-2.72,3.43.87,5.05,1.28,8.48,2.15,1.74.34,3.42,2.4,3.73,4.21.5,19.83-5.25,37.45-12.44,54.57,16.35-6.81,32.01-15.08,45.08-28.81,1.07-1.55,2.71-1.62,3.59-.14,1.75,2.94,2.69,4.52,4.44,7.46.88,1.47.71,4.02-.36,5.57-13.69,14.39-30.25,22.78-47.46,29.8,16.41,6.76,33.35,12.01,52.32,11.57,1.99-.26,3.13.89,2.72,2.52Z"/></g></svg>