<svg width="178" height="38" viewBox="0 0 178 38" fill="none" xmlns="http://www.w3.org/2000/svg">
<path d="M14.9999 17.8C15.7999 19.2 13.9999 19.6 13.1999 19.7C11.9999 19.8 11.6999 19.1 11.8999 18.2C11.9999 17.9 12.1999 17.6 12.3999 17.4C12.5999 17.2 12.9999 17 13.2999 17C13.5999 17 13.9999 17 14.1999 17.2C14.5999 17.3 14.7999 17.5 14.9999 17.8Z" fill="#EB1A6B"/>
<path d="M19.7999 15.3C18.8999 22.3 31.0999 20.8001 30.8999 26.3001C32.0999 24.7001 32.5999 20.5 29.0999 18.3C25.8999 16.3 21.7999 17.4 19.7999 15.3Z" fill="#EB1A6B"/>
<path d="M26.9 12.6C26.8 12.5 26.7 12.5 26.7 12.4C26.7 12.5 26.8 12.6 26.9 12.6Z" fill="#EB1A6B"/>
<path d="M29.6999 17.7001C29.5999 17.5001 29.4999 17.3001 29.2999 17.1001C28.8999 16.5001 28.2999 16.1001 27.5999 16.0001C27.1999 15.9001 26.6999 15.8001 26.1999 15.8001C25.6999 15.8001 25.2999 15.7001 24.7999 15.7001C23.7999 15.6001 22.8999 15.5001 21.8999 15.3001C21.6999 15.2001 21.3999 15.2001 21.1999 15.1001C21.0999 15.1001 20.9999 15.0001 20.7999 15.0001C20.6999 14.9001 20.5999 14.9001 20.3999 14.8001C19.8999 14.6001 19.4999 14.2001 19.1999 13.9001C18.4999 13.2001 17.8999 12.4001 17.2999 11.7001C16.6999 10.9001 16.1999 10.2001 15.4999 9.50006C14.8999 8.80006 14.0999 8.20006 13.2999 7.80006C12.4999 7.40006 11.4999 7.10006 10.5999 7.00006C11.5999 6.90006 12.5999 7.00006 13.4999 7.40006C14.3999 7.80006 15.2999 8.30006 15.9999 9.00006C16.4999 9.40006 16.8999 9.90006 17.2999 10.4001C20.3999 9.80006 22.7999 10.3001 24.6999 11.4001C25.2999 11.7001 25.8999 12.1001 26.3999 12.6001C26.4999 12.7001 26.5999 12.7001 26.5999 12.8001C26.9999 13.2001 27.3999 13.6001 27.6999 14.0001C29.0999 15.3001 29.6999 16.8001 29.6999 17.7001Z" fill="#EB1A6B"/>
<path d="M10.9 7.80005C11.7 7.90005 12.5 8.20005 13 8.80005C13.5 9.40005 13.7 10.2001 13.9 10.9001C14 11.5001 14.1 12.1 14.3 12.6C14.4 12.9 14.6 13.1 14.7 13.3C14.8 13.5 15 13.7001 15.1 13.9001V14V14.1C14.8 14.4 14.1 14.1001 13.8 13.9001C13.3 13.7001 12.9 13.3001 12.5 12.9001C11.4 11.7001 10.8 9.90005 10.8 8.30005C10.8 8.20005 10.9 8.00005 10.9 7.80005Z" fill="#EB1A6B"/>
<path d="M23.8999 21.8C22.1999 26.5 29.8999 29.7 26.9999 34.5C29.8999 33.3 31.2999 29.6 30.0999 26.7C29.0999 24.1 25.8999 23.1 23.8999 21.8Z" fill="#EB1A6B"/>
<path d="M13.8 27.9C14.3 27.6 14.8 27.3 15.3 27C15.8 26.8 16.4 26.6 17 26.5C18.1 26.3 19.3 26.2 20.2 25.8C20.7 25.6 21.1 25.4 21.5 25C21.9 24.7 22.1 24.3 22.3 23.8C22.5 23.3 22.5 22.7999 22.5 22.2999C22.5 21.6999 22.3 21.2 22.1 20.7C22.5 21.1 22.8 21.6999 23 22.2999C23.2 22.8999 23.2001 23.4999 23.1 24.0999C23 24.6999 22.6 25.3 22.2 25.8C21.8 26.2 21.2 26.6 20.6 26.8C20.0001 27 19.4 27.0999 18.8 27.1999C18.2 27.1999 17.7 27.3 17.1 27.3C16 27.3 14.9 27.5 13.8 27.9Z" fill="#EB1A6B"/>
<path d="M24.5999 36.2C24.3999 36.3 24.2999 36.5 24.0999 36.6C23.8999 36.7 23.6999 36.8 23.4999 36.9C23.0999 37.1 22.5999 37.2 22.0999 37.2C20.7999 37.2 19.8999 36.2 19.3999 35.1C18.9999 34.4 18.7999 33.6 18.3999 32.9C17.7999 31.9 16.6999 31.1 15.4999 31.2C14.9999 31.3 14.4999 31.5 14.2999 31.9C13.5999 33 14.5999 34.6 15.9999 34.4C16.0999 34.4 16.1999 34.4 16.2999 34.3C16.3999 34.3 16.4999 34.2 16.5999 34.1C16.7999 33.9 16.8999 33.7 16.9999 33.5C17.0999 33.3 17.0999 33 17.0999 32.7C16.9999 32.4 16.8999 32.2 16.6999 32.1C16.9999 32.2 17.1999 32.4 17.2999 32.7C17.1999 33.2 17.1999 33.5 17.1999 33.8C17.0999 34.1 16.9999 34.4 16.7999 34.6C16.6999 34.7 16.5999 34.8 16.3999 34.9C16.2999 35 16.0999 35.1 15.9999 35.1C15.6999 35.2 15.3999 35.2 15.0999 35.2C14.6999 35.1 14.1999 35 13.8999 34.7C13.4999 34.4 13.1999 33.9 12.7999 33.6C12.3999 33.1 11.8999 32.8 11.2999 32.5C10.8999 32.3 10.4999 32.2 10.0999 32.1C9.8999 32.1 9.6999 32 9.4999 32C9.3999 32 8.8999 31.9 8.8999 31.9C9.5999 31.3 10.2999 30.8 10.9999 30.3C11.7999 29.8 12.5999 29.5 13.4999 29.2C14.3999 28.9 15.2999 28.9 16.2999 29C16.7999 29.1 17.1999 29.2 17.6999 29.4C18.1999 29.6 18.5999 29.9 18.9999 30.2C19.3999 30.6 19.6999 31 19.8999 31.4C20.0999 31.8 20.1999 32.3 20.2999 32.8C20.5999 34.2 20.4999 36.4 22.2999 36.7C22.3999 36.7 22.4999 36.7 22.5999 36.7H22.8999C23.0999 36.7 23.2999 36.7 23.4999 36.6C23.7999 36.6 24.1999 36.4 24.5999 36.2Z" fill="#EB1A6B"/>
<path d="M12.3 14.9C12.2 15.2 12.1 15.4 12 15.6C11.7 16 11.3 16.3 10.9 16.5C10.5 16.7 10.1 16.8 9.6 16.8C9.5 16.8 9.4 16.8 9.3 16.8C9 16.8 8.8 16.9 8.5 17.1C8.3 17.3 8.1 17.5 8.1 17.8C8.1 17.9 8 18.1 8 18.2C8 18.6 7.9 18.9 7.9 19.4C7.8 20.2 7.6 20.9 7.3 21.6C6.9 22.5 6.4 23.3 6.5 24.3C6.6 25 6.9 25.5 7.4 25.9C8.2 26.8 10.1 27.2 9.7 29.3C9.4 30.6 7.3 31.9 4.4 32.4C4.7 32.4 4 31.2 4 31.1C3.7 30.6 3.3 30.1 3.1 29.6C2.6 28.6 2.4 27.3 2.6 26.2C2.8 25 3.7 24.1 4.4 23.1C5.3 22 6.2 20.6 6.4 19.1C6.4 18.8 6.5 18.3 6.6 17.9C6.7 17.4 6.8 17 7 16.5C7.1 16.2 7.3 16 7.6 15.7C7.7 15.6 7.8 15.4 7.8 15.3C7.8 15.1 7.8 15 7.7 14.8L3 6.3L9.8 14.7C9.9 14.8 10 14.9 10.1 14.9C10.2 15 10.3 15 10.5 15C10.6 15 10.7 15 10.9 14.9C11 14.8 11.1 14.8 11.2 14.7C11.3 14.6 11.3 14.5 11.3 14.3C11.3 14.2 11.3 14 11.2 13.9C10.8 13.3 10.3 12.8 9.8 12.2L8.1 10.1L4.7 5.9L0 0L5.1 5.5L8.7 9.5L10.5 11.5C11.1 12.2 11.7 12.8 12.3 13.6L12.4 13.7V13.9C12.4 14.3 12.4 14.6 12.3 14.9Z" fill="#EB1A6B"/>
<path d="M13.9 34.6C13.6 34.3 13.3 34 13 33.7C13.3 34.1 13.5 34.4 13.9 34.6Z" fill="#EB1A6B"/>
<path fill-rule="evenodd" clip-rule="evenodd" d="M102 12C98.7 12.8 97.2 15.4 98.1 18.5C98.5 19.8 99.7 21.2 101.5 22.2C104.6 24 105.6 24.7 106.1 25.8C106.5 26.7 106.6 27 106.4 27.9C105.9 29.9 104.5 30.9 102.5 30.9C100.5 30.9 99.1 29.8 98.7 27.9C98.6 27.1 98.4 26.9 98.1 26.9C97.7 26.9 97.6 27.1 97.6 29V31.1L98.9 31.5C101 32.2 103.9 32.1 105.6 31.3C109 29.7 110.3 26.6 108.8 23.7C108.2 22.6 106.8 21.4 104.4 19.9C101.8 18.3 100.7 17.2 100.5 16.1C100.2 14.3 101.8 12.9 104 12.9C105.7 12.9 106.4 13.3 107 14.6C107.4 15.4 107.6 15.7 108.1 15.7C108.6 15.7 108.7 15.6 108.5 15.1C108.4 14.8 108.3 14 108.3 13.4C108.3 12.6 108.2 12.2 107.9 12.1C107.2 11.8 102.9 11.7 102 12ZM36 12.7C36 13.1 36.2 13.2 36.6 13.2C37.8 13.2 37.9 13.5 38 20.8C38.1 27.1 38.2 27.6 38.7 28.6C39.4 29.9 40.4 30.8 41.9 31.5C42.9 32 43.6 32.1 45.7 32.1C47.9 32.1 48.4 32 49.6 31.4C50.4 31 51.4 30.3 51.8 29.8C53.2 28.1 53.4 27.2 53.5 20.2C53.7 13.4 53.7 13.3 54.8 13.3C55.1 13.3 55.2 13.1 55.2 12.8C55.2 12.3 55 12.3 52.2 12.3C49.4 12.3 49.2 12.3 49.2 12.8C49.2 13.2 49.4 13.3 50 13.4C51.3 13.5 51.4 14 51.4 20.2C51.4 26.5 51.2 27.7 49.8 29C48.6 30.2 47.6 30.6 45.9 30.6C43.5 30.6 41.7 29.5 41.2 27.5C41 26.8 40.9 24.4 41 20.1L41.1 13.7L42 13.4C42.5 13.2 42.9 12.9 43 12.7C43.1 12.3 42.7 12.3 39.6 12.3C36.2 12.2 36 12.2 36 12.7ZM59.3 12.7C59.3 13.1 59.5 13.2 60 13.2C61.3 13.2 62 13.7 62.3 14.8C62.5 15.4 62.5 18.3 62.5 22.4C62.4 29.8 62.3 30.3 60.8 30.6C60.3 30.7 60.1 30.9 60.1 31.2C60.1 31.6 60.3 31.7 63.6 31.7C66.8 31.7 67.1 31.7 67.1 31.3C67.1 31 66.8 30.8 66 30.6C65 30.3 64.9 30.2 64.6 29.4C64.2 28.2 64.2 16.9 64.5 17C64.6 17 65.6 18 66.7 19.3C67.8 20.6 70.7 23.9 73.3 26.6C77.3 30.9 78 31.7 78.6 31.7H79.3L79.4 22.9C79.5 16.6 79.6 14 79.8 13.8C80 13.6 80.5 13.4 80.9 13.3C81.4 13.2 81.7 13 81.7 12.8C81.7 12.5 81.1 12.4 78.3 12.4C75 12.3 74.9 12.3 74.9 12.8C74.9 13.2 75.1 13.3 75.5 13.3C75.8 13.3 76.4 13.6 76.8 13.9L77.5 14.5L77.6 20.5C77.6 23.9 77.6 26.5 77.5 26.5C77.4 26.5 76.6 25.7 75.8 24.8C75 23.9 72.7 21.3 70.7 19.1C68.7 16.9 66.5 14.5 65.8 13.7L64.6 12.3H62C59.4 12.2 59.3 12.2 59.3 12.7ZM85.5 12.7C85.5 13.1 85.7 13.2 86.2 13.2C86.6 13.2 87.1 13.4 87.4 13.6C87.9 13.9 87.9 14.4 88 21.3C88.1 29.9 88 30.4 86.5 30.6C85.8 30.7 85.5 30.9 85.5 31.2C85.5 31.6 85.8 31.7 89.3 31.7C92.9 31.7 93.1 31.7 93.1 31.2C93.1 30.8 92.9 30.7 92.5 30.7C92.2 30.7 91.7 30.5 91.4 30.3C90.9 30 90.9 29.5 90.8 22.1C90.7 14.5 90.7 14.2 91.2 13.7C91.5 13.4 92 13.2 92.3 13.2C92.8 13.2 92.9 13.1 92.9 12.7C92.9 12.2 92.7 12.2 89.1 12.2C85.7 12.2 85.5 12.2 85.5 12.7ZM111.8 12.7C111.9 13 112.1 13.2 112.5 13.2C112.8 13.2 113.3 13.5 113.6 13.8C113.9 14.1 115.6 18.2 117.5 23.1L120.8 31.8L121.7 31.9L122.6 32L124.9 25.8C126.2 22.4 127.4 19.3 127.5 19C127.8 18.4 127.8 18.5 128.6 20.5C129 21.7 130.2 24.7 131.2 27.3L133 32H133.8C134.2 32 134.6 31.9 134.7 31.7C134.8 31.5 135.9 28.6 137.3 25.2C138.6 21.8 140.1 18 140.6 16.8C141.7 14 141.9 13.7 142.7 13.4C143.1 13.3 143.4 13 143.4 12.8C143.4 12.5 142.9 12.4 140.4 12.4C137.6 12.4 137.4 12.4 137.4 12.9C137.4 13.3 137.6 13.4 138 13.4C139 13.4 139.4 13.7 139.4 14.3C139.4 14.8 134.6 27.7 134.3 28C134.1 28.2 129.8 16.2 129.7 15C129.5 13.9 130 13.4 131.1 13.4C131.5 13.4 131.7 13.3 131.7 12.9C131.7 12.4 131.5 12.4 127.8 12.4C124.1 12.4 123.9 12.4 123.9 12.9C123.9 13.2 124.1 13.4 124.3 13.4C125.1 13.4 126.1 14.2 126.4 14.9C126.8 16 126.5 17.1 124.2 23.1L122.3 28.2L121.9 27.2C121.7 26.7 120.5 23.5 119.3 20.2C116.9 13.7 116.9 13.4 118.5 13.4C119.1 13.4 119.2 13.3 119.2 12.9C119.2 12.4 119 12.4 115.5 12.4C111.7 12.2 111.6 12.2 111.8 12.7ZM162.4 12.9C162.4 12.9 162.4 13.2 162.4 13.3C162.4 13.4 162.7 13.4 162.7 13.4C162.9 13.4 163 13.5 163.2 13.5C164 13.7 164.5 13.8 164.7 14.3C164.8 14.6 164.9 15.8 164.9 22.1C164.9 28.7 164.9 29.5 164.7 29.9C164.5 30.4 164.1 30.7 163.1 31C163.1 31 162.7 31.1 162.6 31.2C162.5 31.3 162.5 31.5 162.5 31.5C162.5 31.5 162.5 31.7 162.6 31.8C162.7 31.9 163 31.9 163 31.9H165.5H169.7C169.7 31.9 169.9 31.9 170 31.8C170.1 31.7 170.1 31.5 170.1 31.5C170.1 31.5 170.1 31.3 170 31.2C169.9 31.1 169.5 31 169.5 31C168.6 30.8 168.1 30.5 167.9 30C167.7 29.6 167.7 28.7 167.7 26.6V23.6C167.8 23.7 167.9 23.7 168 23.8C168.5 24.1 169.1 24.6 171.3 24.6C174 24.7 175.6 23.5 176.6 22.1C177.6 20.7 177.9 18.5 177.2 16.1C176.5 13.8 174.4 12.3 171.5 12.2C170 12.1 167.7 12.2 166.5 12.3H166.2C165.1 12.3 163.7 12.5 163 12.5C162.8 12.5 162.8 12.5 162.7 12.6C162.4 12.8 162.4 12.9 162.4 12.9ZM173.5 22.1C174.6 21.1 174.6 19.5 174.6 18.4C174.5 16.8 173.8 13.7 170.2 13.7C169.3 13.7 167.6 13.8 167.5 15C167.4 15.2 167.4 16.7 167.4 18.9V22.5L167.8 22.7C168 22.8 168.3 22.9 168.7 23C170.2 23.4 172.4 23.1 173.5 22.1ZM150.5 12.5C150.8 12.4 151 12.3 151 12.3C151 12.3 151.4 12.1 151.5 12.3C151.5 12.4 151.7 12.7 152.1 13.7C152.2 13.9 152.3 14.1 152.3 14.3C152.8 15.7 153.6 17.7 154 18.8C154.4 19.9 155.2 21.9 155.8 23.5C156.4 25 157.1 26.9 157.5 27.8C157.8 28.7 158.3 29.5 158.4 29.7C158.5 29.8 158.5 29.9 158.6 30C158.9 30.4 159.2 31 159.9 31.1C159.9 31.1 160.4 31.2 160.5 31.3C160.6 31.4 160.6 31.5 160.6 31.5V31.8C160.6 31.8 160.6 31.9 160.5 31.9C160.5 32 160.3 31.9 160.3 31.9H156.1H153.1C153.1 31.9 153 31.9 152.9 31.9C152.8 31.9 152.8 31.7 152.8 31.7V31.5C152.8 31.5 152.8 31.3 152.9 31.2C153 31.1 153.5 31 153.5 31C154.4 30.9 154.8 30.2 154.9 29.8V29.7C155.1 29.3 155 29 154.1 26.9C153.5 25.5 153.3 25.1 153.2 25C153.1 25 151.5 25 149.8 25H146.5L146.3 25.5C145.7 27.1 145.2 28.6 145.2 29C145 29.8 145.3 30.8 146.5 31C146.5 31 147 31.1 147.1 31.2C147.2 31.3 147.3 31.5 147.3 31.5V31.7C147.3 31.7 147.3 31.8 147.2 31.9C147.1 32 146.9 31.9 146.9 31.9H143.8H140.8C140.8 31.9 140.7 31.9 140.6 31.8C140.5 31.7 140.5 31.6 140.5 31.6V31.4C140.5 31.4 140.5 31.3 140.7 31.1C140.9 30.9 141.3 30.9 141.3 30.9C142.1 30.8 142.6 29.9 142.9 29.4C142.9 29.4 142.9 29.3 143 29.3C143.1 29.1 143.6 28 144.1 26.8C144.6 25.6 145.1 24.2 145.3 23.8C145.9 22.3 146.5 20.9 147.4 18.7C147.9 17.5 148.6 15.7 149 14.7L149.7 12.9L150.5 12.5ZM150.3 16.8C150.5 17.2 150.7 17.8 150.8 18.1C150.9 18.4 151.3 19.3 151.6 20.1C151.9 20.9 152.3 21.8 152.5 22.2C152.7 22.6 152.8 22.9 152.8 22.9C152.8 22.9 151.6 22.9 150.1 22.9C148.4 22.9 147.4 22.9 147.4 22.8C147.4 22.8 147.5 22.6 147.5 22.4C147.6 22.1 148.2 20.5 149.4 17.1C149.6 16.6 149.8 16.1 149.8 16C149.9 16 150 16.1 150.3 16.8Z" fill="white"/>
</svg>
