<?xml version="1.0" encoding="UTF-8"?>
<!-- This file is generated by npm run build:icons -->
<svg xmlns="http://www.w3.org/2000/svg" xmlns:xlink="http://www.w3.org/1999/xlink" width="0" height="0">
<defs>
<symbol viewBox="0 0 33 33" fill="none" id="arrow-up-right">
  <path d="M31 2L3 30M31 2H10M31 2V23" stroke="currentColor" stroke-width="5" stroke-linecap="square"></path>
</symbol>
<symbol viewBox="0 0 41 41" id="arrow">
  <path fill-rule="evenodd" clip-rule="evenodd" d="M20 35.4143L32.0208 23.3935L30.6066 21.9793L21 31.5859L21 4.71582L19 4.71582L19 31.5859L9.3934 21.9793L7.97918 23.3935L20 35.4143Z" fill="currentColor"></path>
</symbol>
<symbol viewBox="0 0 24 24" fill="none" id="dark-mode">
<path fill-rule="evenodd" clip-rule="evenodd" d="M5.49997 15.5C11.0228 15.5 15.5 11.0229 15.5 5.50002C15.5 4.65539 15.3953 3.83521 15.1981 3.05176C18.8714 4.36474 21.5 7.87541 21.5 12C21.5 17.2467 17.2467 21.5 12 21.5C7.87541 21.5 4.36475 18.8715 3.05176 15.1982C3.83519 15.3953 4.65535 15.5 5.49997 15.5Z" fill="currentColor"></path>
</symbol>
<symbol viewBox="0 0 18 12" fill="none" id="discord">
<path d="M11.4215 0L11.2085 0.213026C11.2085 0.213026 13.4651 0.877448 14.7561 2.03073C14.7561 2.03073 12.3993 0.589128 9.03968 0.589128C5.68011 0.589128 3.32286 2.03073 3.32286 2.03073C4.61387 0.877448 6.87085 0.213026 6.87085 0.213026L6.65782 0C4.53895 0.0374633 2.62061 1.50441 2.62061 1.50441C0.464267 6.00514 0.602366 9.8914 0.602366 9.8914C2.35763 12.1605 4.96537 11.9974 4.96537 11.9974L5.8553 10.8691C4.28809 10.5308 3.29788 9.1392 3.29788 9.1392C3.29788 9.1392 5.65476 10.7439 9.03968 10.7439C12.4246 10.7439 14.7815 9.1392 14.7815 9.1392C14.7815 9.1392 13.7909 10.5308 12.2241 10.8691L13.1144 11.9974C13.1144 11.9974 15.7221 12.1605 17.477 9.8914C17.477 9.8914 17.6147 6.00514 15.4588 1.50441C15.4588 1.50441 13.54 0.0378305 11.4215 0ZM6.44443 8.52473C5.64191 8.52473 4.98997 7.7975 4.98997 6.93254C4.98997 6.06758 5.62942 5.34035 6.44443 5.34035C7.25944 5.34035 7.92386 6.05509 7.91101 6.93254C7.91101 7.7975 7.25907 8.52473 6.44443 8.52473ZM11.6724 8.52473C10.8699 8.52473 10.2183 7.7975 10.2183 6.93254C10.2183 6.06758 10.8577 5.34035 11.6724 5.34035C12.487 5.34035 13.139 6.05509 13.139 6.93254C13.139 7.80999 12.487 8.52473 11.6724 8.52473Z" fill="currentColor"></path>
</symbol>
<symbol viewBox="0 0 24 24" fill="none" id="light-mode">
<path fill-rule="evenodd" clip-rule="evenodd" d="M13 2V5H11V2H13ZM13 19V22H11V19H13ZM5.63602 4.22182L7.75734 6.34314L6.34312 7.75735L4.2218 5.63603L5.63602 4.22182ZM17.6568 16.2426L19.7782 18.364L18.3639 19.7782L16.2426 17.6568L17.6568 16.2426ZM5 11H2V13H5V11ZM22 11H19V13H22V11ZM4.22183 18.364L6.34315 16.2426L7.75737 17.6568L5.63605 19.7782L4.22183 18.364ZM16.2426 6.34314L18.364 4.22182L19.7782 5.63603L17.6569 7.75735L16.2426 6.34314ZM8 12C8 14.2091 9.79086 16 12 16C14.2091 16 16 14.2091 16 12C16 9.79086 14.2091 8 12 8C9.79086 8 8 9.79086 8 12ZM6 12C6 15.3137 8.68629 18 12 18C15.3137 18 18 15.3137 18 12C18 8.68629 15.3137 6 12 6C8.68629 6 6 8.68629 6 12Z" fill="currentColor"></path>
</symbol>
<symbol viewBox="0 0 132 32" fill="none" id="logo">
<path fill-rule="evenodd" clip-rule="evenodd" d="M47.7986 22.5043L48.7325 20.0203H55.0924L56.0263 22.5043H59.0868L53.383 7.67773H50.5206L44.7969 22.5043H47.7986ZM51.9125 11.473L54.1984 17.6149H49.6266L51.9125 11.473ZM62.6832 21.0547V26.8769H60V11.0966H62.5438V12.6467C63.6369 11.454 65.2468 10.7183 67.1345 10.7183C70.4339 10.7183 72.9379 13.4014 72.9379 16.7606C72.9379 20.1198 70.4339 22.8826 67.1345 22.8826C65.3459 22.8826 63.7763 22.1672 62.6832 21.0547ZM70.1163 16.8203C70.1163 18.8275 68.5662 20.5369 66.3998 20.5369C64.2333 20.5369 62.6035 18.7876 62.6035 16.8004C62.6035 14.8132 64.2333 13.0639 66.3998 13.0639C68.5662 13.0639 70.1163 14.8132 70.1163 16.8203ZM80.5498 23.1005C76.4558 23.1005 73.8125 20.3974 73.8125 16.8003C73.8125 13.2032 76.4359 10.52 79.9932 10.52C83.5505 10.52 86.155 13.1833 86.155 16.8003V17.4763H76.6749C76.9138 19.5233 78.225 20.7957 80.5508 20.7957C82.32 20.7957 83.5515 20.1794 84.4266 19.3052L86.0365 20.9948C84.7841 22.1477 83.1543 23.1015 80.5508 23.1015L80.5498 23.1005ZM76.7933 15.4094H83.1732C82.7759 13.7995 81.6628 12.8059 79.9932 12.8059C78.3236 12.8059 77.1906 13.7995 76.7933 15.4094ZM87.4297 22.5041H90.1128V16.3632C90.1128 15.4094 91.2648 14.0574 93.0738 14.0574C93.2331 14.0574 93.5108 14.0972 93.6303 14.1569V11.0964H93.253C91.6033 11.0964 90.4304 12.6277 89.9934 13.5217V11.0964H87.4297V22.5041ZM98.1802 13.3625V22.5041H95.4971V13.3615H94.0664V11.0955H95.4971V8.33367L98.1802 7.7373V11.0965H99.6109V13.3625H98.1802ZM104.778 22.8227C106.447 22.8227 107.758 22.0471 108.514 21.2327V22.5051H111.078V11.0964H108.395V17.9741C108.395 19.584 107.004 20.4581 105.851 20.4581C104.5 20.4581 103.367 19.7622 103.367 17.775V11.0964H100.684V18.5894C100.684 21.2128 102.372 22.8227 104.778 22.8227ZM115.511 22.5041H112.828V11.0964H115.392V13.5217C115.829 12.6277 117.002 11.0964 118.651 11.0964H119.029V14.1569C118.909 14.0972 118.632 14.0574 118.472 14.0574C116.663 14.0574 115.511 15.4094 115.511 16.3632V22.5041ZM119.504 16.8003C119.504 20.3974 122.147 23.1005 126.241 23.1005L126.242 23.1015C128.846 23.1015 130.475 22.1477 131.728 20.9948L130.118 19.3052C129.243 20.1794 128.011 20.7957 126.242 20.7957C123.916 20.7957 122.605 19.5233 122.366 17.4763H131.846V16.8003C131.846 13.1833 129.242 10.52 125.685 10.52C122.127 10.52 119.504 13.2032 119.504 16.8003ZM128.865 15.4094H122.485C122.882 13.7995 124.015 12.8059 125.685 12.8059C127.354 12.8059 128.467 13.7995 128.865 15.4094Z" fill="currentColor"></path>
<path fill-rule="evenodd" clip-rule="evenodd" d="M13.4378 22.4226C13.5421 22.4649 13.6051 22.5722 13.5855 22.6837L13.5793 22.7198C13.5597 22.8324 13.4616 22.9149 13.347 22.9149H1.7187C1.62683 22.9149 1.54322 22.8623 1.50399 22.7797C0.538835 20.7204 0 18.4763 0 15.9989C0 13.5215 0.563609 11.1762 1.56799 9.08278C4.14759 3.70888 9.64019 -0.00103186 15.9999 2.15285e-07C16.5263 2.15285e-07 17.0466 0.0268389 17.5607 0.076387C17.8879 0.108387 18.213 0.149677 18.5351 0.200257C18.6652 0.220902 18.7519 0.345805 18.7292 0.474836L17.25 8.88872C17.2303 9.00123 17.1323 9.08381 17.0177 9.08381H15.9999H15.9772C12.1682 9.0962 9.08381 12.1868 9.08381 15.9989C9.08381 18.9129 10.8872 21.4048 13.4378 22.4226ZM18.5482 9.08398H30.2797H30.2807C30.3726 9.08398 30.4562 9.13663 30.4954 9.21921C31.4606 11.2786 31.9994 13.5227 31.9994 16.0001C31.9994 18.4775 31.4369 20.8227 30.4314 22.9162C27.8519 28.2901 22.3592 32 15.9995 32C15.438 32 14.8826 31.97 14.3366 31.9133C14.0434 31.8823 13.7523 31.8441 13.4633 31.7987C13.3332 31.778 13.2465 31.6542 13.2692 31.5251L14.7485 23.1112C14.7681 22.9987 14.8661 22.9162 14.9807 22.9162H15.918V22.9141C15.9448 22.9151 15.9717 22.9162 15.9985 22.9162C19.8178 22.9162 22.9146 19.8194 22.9146 16.0001C22.9146 13.0509 21.0669 10.5353 18.4666 9.54127C18.3603 9.49998 18.2963 9.39159 18.3159 9.27908C18.3355 9.16656 18.4336 9.08398 18.5482 9.08398Z" fill="currentColor"></path>
</symbol>
<symbol viewBox="0 0 17 10" fill="none" id="medium">
<path fill-rule="evenodd" clip-rule="evenodd" d="M9.68869 4.99992C9.68869 7.48519 7.68769 9.5 5.21927 9.5C2.75084 9.5 0.75 7.4858 0.75 4.99992C0.75 2.51405 2.75099 0.5 5.21927 0.5C7.68754 0.5 9.68869 2.51465 9.68869 4.99992ZM12.3568 9.23569C13.591 9.23569 14.5915 7.33916 14.5915 4.99968C14.5915 2.6602 13.591 0.763672 12.3568 0.763672C11.1226 0.763672 10.1221 2.6602 10.1221 4.99968C10.1221 7.33916 11.1226 9.23569 12.3568 9.23569ZM15.8123 8.79566C16.2464 8.79566 16.5983 7.09652 16.5983 5.00037C16.5983 2.90437 16.2467 1.20508 15.8125 1.20508C15.3783 1.20508 15.0264 2.90482 15.0264 5.00037C15.0264 7.09591 15.3783 8.79566 15.8123 8.79566Z" fill="currentColor"></path>
</symbol>
<symbol viewBox="0 0 15 12" fill="none" id="telegram">
<path d="M13.9432 0.0789028L1.2687 4.96642C0.403717 5.31384 0.408721 5.79638 1.11 6.01155L4.36406 7.02665L11.893 2.27639C12.249 2.05979 12.5743 2.17631 12.3069 2.41364L6.20697 7.9188H6.20554L6.20697 7.91952L5.98251 11.2737C6.31134 11.2737 6.45646 11.1228 6.6409 10.9448L8.22146 9.40786L11.5091 11.8363C12.1153 12.1701 12.5507 11.9985 12.7015 11.2751L14.8597 1.10402C15.0806 0.218301 14.5215 -0.182737 13.9432 0.0789028Z" fill="currentColor"></path>
</symbol>
<symbol viewBox="0 0 12 12" fill="none" id="x.com">
<path d="M7.13685 5.08177L11.6011 0H10.5436L6.66564 4.41152L3.57062 0H0L4.6813 6.67164L0 12H1.05752L5.15011 7.34028L8.41938 12H11.99M1.4392 0.780949H3.06385L10.5428 11.2574H8.91777" fill="currentColor"></path>
</symbol>
</defs>
</svg>
