<svg width="953" height="313" viewBox="0 0 953 313" fill="none" xmlns="http://www.w3.org/2000/svg">
<path d="M930.497 7.2L929.697 58.8C922.764 56.1333 914.364 53.8667 904.497 52C894.631 50.1333 885.297 49.2 876.497 49.2C859.964 49.2 847.964 51.8667 840.497 57.2C833.297 62.2667 829.697 69.0667 829.697 77.6C829.697 85.6 833.831 93.6 842.097 101.6C850.364 109.333 863.564 119.467 881.697 132C903.297 147.2 920.364 162 932.897 176.4C945.697 190.533 952.097 206.667 952.097 224.8C952.097 249.333 942.097 269.6 922.097 285.6C902.364 301.333 876.231 309.2 843.697 309.2C838.631 309.2 832.897 308.933 826.497 308.4C820.097 307.867 813.697 307.067 807.297 306C800.897 305.2 794.764 304.267 788.897 303.2C783.031 302.133 778.364 301.067 774.897 300L775.697 247.6C779.164 248.933 783.564 250.4 788.897 252C794.497 253.333 800.497 254.667 806.897 256C813.297 257.067 819.964 258 826.897 258.8C834.097 259.6 840.897 260 847.297 260C862.497 260 873.964 256.667 881.697 250C889.431 243.333 893.297 235.733 893.297 227.2C893.297 218.933 889.031 210.8 880.497 202.8C872.231 194.533 859.031 184.267 840.897 172C814.764 154.133 796.631 138.267 786.497 124.4C776.631 110.267 771.697 94.8 771.697 78C771.697 68.1333 773.697 58.5333 777.697 49.2C781.697 39.6 787.831 31.2 796.097 24C804.631 16.8 815.564 11.0667 828.897 6.80001C842.231 2.26667 858.097 0 876.497 0C885.564 0 894.897 0.799999 904.497 2.39999C914.364 3.73333 923.031 5.33333 930.497 7.2Z" fill="white"/>
<path d="M646.909 278.4C658.909 278.4 668.776 274.267 676.509 266C684.509 257.467 688.509 247.067 688.509 234.8C688.509 223.867 684.642 214.4 676.909 206.4C669.442 198.4 659.442 194.4 646.909 194.4C634.642 194.4 624.776 198.4 617.309 206.4C609.842 214.4 606.109 223.867 606.109 234.8C606.109 246.8 609.842 257.067 617.309 265.6C624.776 274.133 634.642 278.4 646.909 278.4ZM692.909 304.4V284.8C685.442 292.533 675.976 299.067 664.509 304.4C653.309 309.733 640.242 312.4 625.309 312.4C603.976 312.4 585.976 305.333 571.309 291.2C556.909 276.8 549.709 258.533 549.709 236.4C549.709 226 551.576 216.133 555.309 206.8C559.309 197.467 564.909 189.467 572.109 182.8C579.309 175.867 588.109 170.4 598.509 166.4C608.909 162.4 620.509 160.4 633.309 160.4C644.776 160.4 655.042 161.867 664.109 164.8C673.442 167.467 681.442 171.067 688.109 175.6V165.6C688.109 145.6 683.976 132 675.709 124.8C667.709 117.333 655.576 113.733 639.309 114C631.576 114 623.576 114.533 615.309 115.6C607.309 116.667 596.376 118.533 582.509 121.2L580.909 75.6C594.509 72.9334 605.842 71.0667 614.909 70C623.976 68.9334 634.242 68.4 645.709 68.4C678.509 68.4 702.776 75.7334 718.509 90.4C734.242 104.8 742.109 124.4 742.109 149.2V304.4H692.909Z" fill="white"/>
<path d="M429.721 278.4C441.721 278.4 451.588 274.267 459.321 266C467.321 257.467 471.321 247.067 471.321 234.8C471.321 223.867 467.455 214.4 459.721 206.4C452.255 198.4 442.255 194.4 429.721 194.4C417.455 194.4 407.588 198.4 400.121 206.4C392.655 214.4 388.921 223.867 388.921 234.8C388.921 246.8 392.655 257.067 400.121 265.6C407.588 274.133 417.455 278.4 429.721 278.4ZM475.721 304.4V284.8C468.255 292.533 458.788 299.067 447.321 304.4C436.121 309.733 423.055 312.4 408.121 312.4C386.788 312.4 368.788 305.333 354.121 291.2C339.721 276.8 332.521 258.533 332.521 236.4C332.521 226 334.388 216.133 338.121 206.8C342.121 197.467 347.721 189.467 354.921 182.8C362.121 175.867 370.921 170.4 381.321 166.4C391.721 162.4 403.321 160.4 416.121 160.4C427.588 160.4 437.855 161.867 446.921 164.8C456.255 167.467 464.255 171.067 470.921 175.6V165.6C470.921 145.6 466.788 132 458.521 124.8C450.521 117.333 438.388 113.733 422.121 114C414.388 114 406.388 114.533 398.121 115.6C390.121 116.667 379.188 118.533 365.321 121.2L363.721 75.6C377.321 72.9334 388.655 71.0667 397.721 70C406.788 68.9334 417.055 68.4 428.521 68.4C461.321 68.4 485.588 75.7334 501.321 90.4C517.055 104.8 524.921 124.4 524.921 149.2V304.4H475.721Z" fill="white"/>
<path d="M152.4 246.8L58 110.8V304.4H0V6H57.2L155.6 148.4L248.4 6H305.6V304.4H247.6V111.6L158 246.8H152.4Z" fill="white"/>
</svg>
