<svg width="357" height="60" viewBox="0 0 357 60" fill="none" xmlns="http://www.w3.org/2000/svg">
<rect width="357" height="60" rx="30" fill="url(#paint0_linear_6693_423)"/>
<path d="M41.8047 38V20.9375H45.1914L49.8438 33.2539C49.9375 33.4961 50.0234 33.7422 50.1016 33.9922C50.1797 34.2422 50.2461 34.5 50.3008 34.7656H50.3828C50.4375 34.5 50.5039 34.2422 50.582 33.9922C50.6602 33.7422 50.7461 33.4961 50.8398 33.2539L55.4922 20.9375H58.9023V38H56.3594V26.0469C56.3594 25.7969 56.3633 25.5195 56.3711 25.2148C56.3789 24.9102 56.3984 24.6328 56.4297 24.3828H56.3477C56.3008 24.6328 56.2305 24.9102 56.1367 25.2148C56.0508 25.5195 55.9609 25.7969 55.8672 26.0469L51.3672 38H49.1289L44.6289 26.0469C44.5352 25.7969 44.4414 25.5117 44.3477 25.1914C44.2617 24.8711 44.1992 24.6016 44.1602 24.3828H44.0781C44.1016 24.6016 44.1172 24.8711 44.125 25.1914C44.1406 25.5117 44.1484 25.7969 44.1484 26.0469V38H41.8047ZM61.6328 34.4961C61.6328 33.2617 62.1172 32.3047 63.0859 31.625C64.0625 30.9453 65.3125 30.6055 66.8359 30.6055H69.4844V29.7617C69.4844 29.0898 69.3086 28.5547 68.957 28.1562C68.6133 27.75 68.0195 27.5469 67.1758 27.5469C66.3398 27.5469 65.7344 27.7148 65.3594 28.0508C64.9844 28.3867 64.7969 28.8008 64.7969 29.293V29.4336H62.3242V29.2695C62.3242 28.2773 62.7695 27.4336 63.6602 26.7383C64.5586 26.043 65.7617 25.6953 67.2695 25.6953C68.7695 25.6953 69.9336 26.0312 70.7617 26.7031C71.5898 27.3672 72.0039 28.3945 72.0039 29.7852V35.2227C72.0039 35.7227 72.043 36.1992 72.1211 36.6523C72.1992 37.0977 72.3125 37.4844 72.4609 37.8125V38H70.0117C69.9023 37.8047 69.8047 37.5586 69.7188 37.2617C69.6406 36.957 69.5898 36.6523 69.5664 36.3477C69.293 36.832 68.832 37.2656 68.1836 37.6484C67.543 38.0234 66.7227 38.2109 65.7227 38.2109C64.5586 38.2109 63.5859 37.8984 62.8047 37.2734C62.0234 36.6406 61.6328 35.7148 61.6328 34.4961ZM64.1523 34.332C64.1523 34.9727 64.3359 35.4727 64.7031 35.832C65.0781 36.1914 65.6523 36.3711 66.4258 36.3711C67.2227 36.3711 67.9297 36.1016 68.5469 35.5625C69.1719 35.0234 69.4844 34.4297 69.4844 33.7812V32.2578H67.2109C66.1875 32.2578 65.4219 32.4414 64.9141 32.8086C64.4062 33.1758 64.1523 33.6836 64.1523 34.332ZM75.1328 38V26.0234H77.4883L77.5586 27.5234H77.6172C77.9062 27.0312 78.293 26.6055 78.7773 26.2461C79.2695 25.8867 79.8438 25.707 80.5 25.707C80.6719 25.707 80.8477 25.7266 81.0273 25.7656C81.2148 25.7969 81.3477 25.8281 81.4258 25.8594V28.0742C81.2773 28.043 81.1172 28.0195 80.9453 28.0039C80.7734 27.9805 80.5859 27.9688 80.3828 27.9688C79.7578 27.9688 79.207 28.1445 78.7305 28.4961C78.2539 28.8477 77.8984 29.293 77.6641 29.832V38H75.1328ZM83.2656 38V20.2227H85.7852V31.1094L90.4961 26.0234H93.3438L85.7852 34.0391V38H83.2656ZM90.9414 38L86.4648 31.9297L88.0469 30.1719L93.8945 38H90.9414ZM94.2812 32.1992V31.8242C94.2812 29.9961 94.7969 28.5195 95.8281 27.3945C96.8594 26.2617 98.2109 25.6953 99.8828 25.6953C101.555 25.6953 102.848 26.2266 103.762 27.2891C104.676 28.3438 105.133 29.7891 105.133 31.625V32.5625H95.8516V30.793H102.625V30.5586C102.625 29.7617 102.398 29.0781 101.945 28.5078C101.492 27.9297 100.816 27.6406 99.918 27.6406C98.8867 27.6406 98.1094 28.0273 97.5859 28.8008C97.0703 29.5664 96.8125 30.5469 96.8125 31.7422V32.2461C96.8125 33.4414 97.0898 34.4297 97.6445 35.2109C98.1992 35.9844 99.0352 36.3711 100.152 36.3711C100.871 36.3711 101.488 36.2109 102.004 35.8906C102.527 35.5625 102.949 35.1719 103.27 34.7188L105.004 35.9023C104.637 36.543 104.039 37.1094 103.211 37.6016C102.383 38.0859 101.367 38.3281 100.164 38.3281C98.2891 38.3281 96.8398 37.7656 95.8164 36.6406C94.793 35.5078 94.2812 34.0273 94.2812 32.1992ZM105.918 27.9336V26.0234H112.996V27.9336H105.918ZM107.945 34.7773V26.9961L107.957 26.7031V22.8008H110.453V34.6836C110.453 35.3008 110.562 35.7227 110.781 35.9492C111 36.1758 111.332 36.2891 111.777 36.2891C111.98 36.2891 112.18 36.2695 112.375 36.2305C112.57 36.1914 112.766 36.1328 112.961 36.0547V38C112.766 38.0859 112.508 38.1602 112.188 38.2227C111.867 38.293 111.508 38.3281 111.109 38.3281C110.148 38.3281 109.379 38.0469 108.801 37.4844C108.23 36.9219 107.945 36.0195 107.945 34.7773ZM120.859 38V20.9375H124.246L128.898 33.2539C128.992 33.4961 129.078 33.7422 129.156 33.9922C129.234 34.2422 129.301 34.5 129.355 34.7656H129.438C129.492 34.5 129.559 34.2422 129.637 33.9922C129.715 33.7422 129.801 33.4961 129.895 33.2539L134.547 20.9375H137.957V38H135.414V26.0469C135.414 25.7969 135.418 25.5195 135.426 25.2148C135.434 24.9102 135.453 24.6328 135.484 24.3828H135.402C135.355 24.6328 135.285 24.9102 135.191 25.2148C135.105 25.5195 135.016 25.7969 134.922 26.0469L130.422 38H128.184L123.684 26.0469C123.59 25.7969 123.496 25.5117 123.402 25.1914C123.316 24.8711 123.254 24.6016 123.215 24.3828H123.133C123.156 24.6016 123.172 24.8711 123.18 25.1914C123.195 25.5117 123.203 25.7969 123.203 26.0469V38H120.859ZM140.688 34.4961C140.688 33.2617 141.172 32.3047 142.141 31.625C143.117 30.9453 144.367 30.6055 145.891 30.6055H148.539V29.7617C148.539 29.0898 148.363 28.5547 148.012 28.1562C147.668 27.75 147.074 27.5469 146.23 27.5469C145.395 27.5469 144.789 27.7148 144.414 28.0508C144.039 28.3867 143.852 28.8008 143.852 29.293V29.4336H141.379V29.2695C141.379 28.2773 141.824 27.4336 142.715 26.7383C143.613 26.043 144.816 25.6953 146.324 25.6953C147.824 25.6953 148.988 26.0312 149.816 26.7031C150.645 27.3672 151.059 28.3945 151.059 29.7852V35.2227C151.059 35.7227 151.098 36.1992 151.176 36.6523C151.254 37.0977 151.367 37.4844 151.516 37.8125V38H149.066C148.957 37.8047 148.859 37.5586 148.773 37.2617C148.695 36.957 148.645 36.6523 148.621 36.3477C148.348 36.832 147.887 37.2656 147.238 37.6484C146.598 38.0234 145.777 38.2109 144.777 38.2109C143.613 38.2109 142.641 37.8984 141.859 37.2734C141.078 36.6406 140.688 35.7148 140.688 34.4961ZM143.207 34.332C143.207 34.9727 143.391 35.4727 143.758 35.832C144.133 36.1914 144.707 36.3711 145.48 36.3711C146.277 36.3711 146.984 36.1016 147.602 35.5625C148.227 35.0234 148.539 34.4297 148.539 33.7812V32.2578H146.266C145.242 32.2578 144.477 32.4414 143.969 32.8086C143.461 33.1758 143.207 33.6836 143.207 34.332ZM154.188 38V20.2227H156.707V31.1094L161.418 26.0234H164.266L156.707 34.0391V38H154.188ZM161.863 38L157.387 31.9297L158.969 30.1719L164.816 38H161.863ZM165.203 32.1992V31.8242C165.203 29.9961 165.719 28.5195 166.75 27.3945C167.781 26.2617 169.133 25.6953 170.805 25.6953C172.477 25.6953 173.77 26.2266 174.684 27.2891C175.598 28.3438 176.055 29.7891 176.055 31.625V32.5625H166.773V30.793H173.547V30.5586C173.547 29.7617 173.32 29.0781 172.867 28.5078C172.414 27.9297 171.738 27.6406 170.84 27.6406C169.809 27.6406 169.031 28.0273 168.508 28.8008C167.992 29.5664 167.734 30.5469 167.734 31.7422V32.2461C167.734 33.4414 168.012 34.4297 168.566 35.2109C169.121 35.9844 169.957 36.3711 171.074 36.3711C171.793 36.3711 172.41 36.2109 172.926 35.8906C173.449 35.5625 173.871 35.1719 174.191 34.7188L175.926 35.9023C175.559 36.543 174.961 37.1094 174.133 37.6016C173.305 38.0859 172.289 38.3281 171.086 38.3281C169.211 38.3281 167.762 37.7656 166.738 36.6406C165.715 35.5078 165.203 34.0273 165.203 32.1992ZM178.398 38V26.0234H180.754L180.824 27.5234H180.883C181.172 27.0312 181.559 26.6055 182.043 26.2461C182.535 25.8867 183.109 25.707 183.766 25.707C183.938 25.707 184.113 25.7266 184.293 25.7656C184.48 25.7969 184.613 25.8281 184.691 25.8594V28.0742C184.543 28.043 184.383 28.0195 184.211 28.0039C184.039 27.9805 183.852 27.9688 183.648 27.9688C183.023 27.9688 182.473 28.1445 181.996 28.4961C181.52 28.8477 181.164 29.293 180.93 29.832V38H178.398ZM191.453 34.4961C191.453 33.2617 191.938 32.3047 192.906 31.625C193.883 30.9453 195.133 30.6055 196.656 30.6055H199.305V29.7617C199.305 29.0898 199.129 28.5547 198.777 28.1562C198.434 27.75 197.84 27.5469 196.996 27.5469C196.16 27.5469 195.555 27.7148 195.18 28.0508C194.805 28.3867 194.617 28.8008 194.617 29.293V29.4336H192.145V29.2695C192.145 28.2773 192.59 27.4336 193.48 26.7383C194.379 26.043 195.582 25.6953 197.09 25.6953C198.59 25.6953 199.754 26.0312 200.582 26.7031C201.41 27.3672 201.824 28.3945 201.824 29.7852V35.2227C201.824 35.7227 201.863 36.1992 201.941 36.6523C202.02 37.0977 202.133 37.4844 202.281 37.8125V38H199.832C199.723 37.8047 199.625 37.5586 199.539 37.2617C199.461 36.957 199.41 36.6523 199.387 36.3477C199.113 36.832 198.652 37.2656 198.004 37.6484C197.363 38.0234 196.543 38.2109 195.543 38.2109C194.379 38.2109 193.406 37.8984 192.625 37.2734C191.844 36.6406 191.453 35.7148 191.453 34.4961ZM193.973 34.332C193.973 34.9727 194.156 35.4727 194.523 35.832C194.898 36.1914 195.473 36.3711 196.246 36.3711C197.043 36.3711 197.75 36.1016 198.367 35.5625C198.992 35.0234 199.305 34.4297 199.305 33.7812V32.2578H197.031C196.008 32.2578 195.242 32.4414 194.734 32.8086C194.227 33.1758 193.973 33.6836 193.973 34.332ZM204.262 34.3555L206.723 34.3672V34.4961C206.723 35.168 206.957 35.6641 207.426 35.9844C207.895 36.2969 208.52 36.4531 209.301 36.4531C210.09 36.4531 210.699 36.3047 211.129 36.0078C211.566 35.7031 211.785 35.2969 211.785 34.7891C211.785 34.2812 211.59 33.8984 211.199 33.6406C210.809 33.375 209.977 33.0977 208.703 32.8086C207.367 32.5039 206.344 32.0703 205.633 31.5078C204.93 30.9453 204.578 30.1719 204.578 29.1875C204.578 28.1406 205 27.2969 205.844 26.6562C206.688 26.0156 207.824 25.6953 209.254 25.6953C210.684 25.6953 211.828 26.0234 212.688 26.6797C213.555 27.3281 213.988 28.2227 213.988 29.3633V29.4805H211.527V29.3281C211.527 28.7578 211.34 28.3242 210.965 28.0273C210.59 27.7227 210.016 27.5703 209.242 27.5703C208.484 27.5703 207.93 27.707 207.578 27.9805C207.227 28.2461 207.051 28.6016 207.051 29.0469C207.051 29.4766 207.258 29.8164 207.672 30.0664C208.086 30.3164 208.926 30.5859 210.191 30.875C211.527 31.1797 212.543 31.6172 213.238 32.1875C213.934 32.75 214.281 33.5547 214.281 34.6016C214.281 35.7266 213.863 36.6289 213.027 37.3086C212.191 37.9883 210.953 38.3281 209.312 38.3281C207.68 38.3281 206.43 37.9844 205.562 37.2969C204.703 36.6094 204.273 35.668 204.273 34.4727L204.262 34.3555ZM221.664 34.4961C221.664 33.2617 222.148 32.3047 223.117 31.625C224.094 30.9453 225.344 30.6055 226.867 30.6055H229.516V29.7617C229.516 29.0898 229.34 28.5547 228.988 28.1562C228.645 27.75 228.051 27.5469 227.207 27.5469C226.371 27.5469 225.766 27.7148 225.391 28.0508C225.016 28.3867 224.828 28.8008 224.828 29.293V29.4336H222.355V29.2695C222.355 28.2773 222.801 27.4336 223.691 26.7383C224.59 26.043 225.793 25.6953 227.301 25.6953C228.801 25.6953 229.965 26.0312 230.793 26.7031C231.621 27.3672 232.035 28.3945 232.035 29.7852V35.2227C232.035 35.7227 232.074 36.1992 232.152 36.6523C232.23 37.0977 232.344 37.4844 232.492 37.8125V38H230.043C229.934 37.8047 229.836 37.5586 229.75 37.2617C229.672 36.957 229.621 36.6523 229.598 36.3477C229.324 36.832 228.863 37.2656 228.215 37.6484C227.574 38.0234 226.754 38.2109 225.754 38.2109C224.59 38.2109 223.617 37.8984 222.836 37.2734C222.055 36.6406 221.664 35.7148 221.664 34.4961ZM224.184 34.332C224.184 34.9727 224.367 35.4727 224.734 35.832C225.109 36.1914 225.684 36.3711 226.457 36.3711C227.254 36.3711 227.961 36.1016 228.578 35.5625C229.203 35.0234 229.516 34.4297 229.516 33.7812V32.2578H227.242C226.219 32.2578 225.453 32.4414 224.945 32.8086C224.438 33.1758 224.184 33.6836 224.184 34.332ZM240.133 33.3125V32.9727H242.723V33.2773C242.723 34.2695 243.035 35.0156 243.66 35.5156C244.293 36.0078 245.172 36.2539 246.297 36.2539C247.422 36.2539 248.281 36.0078 248.875 35.5156C249.477 35.0234 249.777 34.375 249.777 33.5703C249.777 32.8125 249.492 32.2148 248.922 31.7773C248.352 31.332 247.23 30.8594 245.559 30.3594C243.777 29.8359 242.48 29.2031 241.668 28.4609C240.855 27.7109 240.449 26.6602 240.449 25.3086C240.449 23.9258 240.961 22.7969 241.984 21.9219C243.008 21.0469 244.41 20.6094 246.191 20.6094C247.965 20.6094 249.379 21.0625 250.434 21.9688C251.496 22.8672 252.027 24.0508 252.027 25.5195V25.8125H249.461V25.5547C249.461 24.6875 249.188 23.9961 248.641 23.4805C248.094 22.957 247.281 22.6953 246.203 22.6953C245.109 22.6953 244.305 22.918 243.789 23.3633C243.281 23.8086 243.027 24.4102 243.027 25.168C243.027 25.8789 243.297 26.4375 243.836 26.8438C244.383 27.2422 245.5 27.6914 247.188 28.1914C248.945 28.707 250.246 29.3594 251.09 30.1484C251.934 30.9375 252.355 32.043 252.355 33.4648C252.355 34.9336 251.809 36.1133 250.715 37.0039C249.621 37.8867 248.152 38.3281 246.309 38.3281C244.457 38.3281 242.965 37.8906 241.832 37.0156C240.699 36.1406 240.133 34.9062 240.133 33.3125ZM254.125 32.1992V31.8242C254.125 29.9961 254.641 28.5195 255.672 27.3945C256.703 26.2617 258.055 25.6953 259.727 25.6953C261.398 25.6953 262.691 26.2266 263.605 27.2891C264.52 28.3438 264.977 29.7891 264.977 31.625V32.5625H255.695V30.793H262.469V30.5586C262.469 29.7617 262.242 29.0781 261.789 28.5078C261.336 27.9297 260.66 27.6406 259.762 27.6406C258.73 27.6406 257.953 28.0273 257.43 28.8008C256.914 29.5664 256.656 30.5469 256.656 31.7422V32.2461C256.656 33.4414 256.934 34.4297 257.488 35.2109C258.043 35.9844 258.879 36.3711 259.996 36.3711C260.715 36.3711 261.332 36.2109 261.848 35.8906C262.371 35.5625 262.793 35.1719 263.113 34.7188L264.848 35.9023C264.48 36.543 263.883 37.1094 263.055 37.6016C262.227 38.0859 261.211 38.3281 260.008 38.3281C258.133 38.3281 256.684 37.7656 255.66 36.6406C254.637 35.5078 254.125 34.0273 254.125 32.1992ZM267.32 38V26.0234H269.676L269.746 27.5234H269.805C270.094 27.0312 270.48 26.6055 270.965 26.2461C271.457 25.8867 272.031 25.707 272.688 25.707C272.859 25.707 273.035 25.7266 273.215 25.7656C273.402 25.7969 273.535 25.8281 273.613 25.8594V28.0742C273.465 28.043 273.305 28.0195 273.133 28.0039C272.961 27.9805 272.773 27.9688 272.57 27.9688C271.945 27.9688 271.395 28.1445 270.918 28.4961C270.441 28.8477 270.086 29.293 269.852 29.832V38H267.32ZM274.117 26.0234H276.613L279.391 33.7578C279.492 34.0547 279.578 34.332 279.648 34.5898C279.719 34.8477 279.77 35.0625 279.801 35.2344H279.871C279.902 35.0625 279.953 34.8516 280.023 34.6016C280.102 34.3438 280.191 34.0625 280.293 33.7578L283.059 26.0234H285.402L280.844 38H278.688L274.117 26.0234ZM287.02 38V26.0234H289.539V38H287.02ZM286.75 22.3203C286.75 21.9141 286.879 21.5742 287.137 21.3008C287.402 21.0195 287.781 20.8789 288.273 20.8789C288.766 20.8789 289.145 21.0156 289.41 21.2891C289.676 21.5625 289.809 21.9062 289.809 22.3203C289.809 22.7266 289.676 23.0703 289.41 23.3516C289.145 23.625 288.766 23.7617 288.273 23.7617C287.781 23.7617 287.402 23.625 287.137 23.3516C286.879 23.0703 286.75 22.7266 286.75 22.3203ZM292.047 32.1992V31.8242C292.047 29.9727 292.559 28.4883 293.582 27.3711C294.605 26.2539 295.992 25.6953 297.742 25.6953C299.398 25.6953 300.656 26.1211 301.516 26.9727C302.375 27.8164 302.812 28.8203 302.828 29.9844L302.84 30.1133H300.391V30.0078C300.391 29.3516 300.176 28.7969 299.746 28.3438C299.316 27.8906 298.652 27.6641 297.754 27.6641C296.707 27.6641 295.922 28.043 295.398 28.8008C294.875 29.5586 294.613 30.543 294.613 31.7539V32.2578C294.613 33.4453 294.871 34.4258 295.387 35.1992C295.902 35.9727 296.688 36.3594 297.742 36.3594C298.664 36.3594 299.336 36.1289 299.758 35.668C300.18 35.207 300.395 34.6484 300.402 33.9922V33.8867H302.84V34.0039C302.84 35.1602 302.402 36.1719 301.527 37.0391C300.652 37.8984 299.391 38.3281 297.742 38.3281C295.992 38.3281 294.605 37.7695 293.582 36.6523C292.559 35.5273 292.047 34.043 292.047 32.1992ZM304.398 32.1992V31.8242C304.398 29.9961 304.914 28.5195 305.945 27.3945C306.977 26.2617 308.328 25.6953 310 25.6953C311.672 25.6953 312.965 26.2266 313.879 27.2891C314.793 28.3438 315.25 29.7891 315.25 31.625V32.5625H305.969V30.793H312.742V30.5586C312.742 29.7617 312.516 29.0781 312.062 28.5078C311.609 27.9297 310.934 27.6406 310.035 27.6406C309.004 27.6406 308.227 28.0273 307.703 28.8008C307.188 29.5664 306.93 30.5469 306.93 31.7422V32.2461C306.93 33.4414 307.207 34.4297 307.762 35.2109C308.316 35.9844 309.152 36.3711 310.27 36.3711C310.988 36.3711 311.605 36.2109 312.121 35.8906C312.645 35.5625 313.066 35.1719 313.387 34.7188L315.121 35.9023C314.754 36.543 314.156 37.1094 313.328 37.6016C312.5 38.0859 311.484 38.3281 310.281 38.3281C308.406 38.3281 306.957 37.7656 305.934 36.6406C304.91 35.5078 304.398 34.0273 304.398 32.1992Z" fill="black"/>
<defs>
<linearGradient id="paint0_linear_6693_423" x1="0" y1="30" x2="357" y2="30" gradientUnits="userSpaceOnUse">
<stop stop-color="#F9C13D"/>
<stop offset="1" stop-color="#9B6BFF"/>
</linearGradient>
</defs>
</svg>
